<svg xmlns="http://www.w3.org/2000/svg" viewBox="0 0 1276.207 223.545" xmlns:v="https://vecta.io/nano"><defs><linearGradient id="A" x1="1.422" y1="520.358" x2="1277.629" y2="520.358" gradientUnits="userSpaceOnUse"><stop offset="0" stop-color="#dea752"/><stop offset=".144" stop-color="#fdcf3e"/><stop offset=".269" stop-color="#fddc8b"/><stop offset=".413" stop-color="#fdcf3e"/><stop offset=".532" stop-color="#f2b64d"/><stop offset=".646" stop-color="#fddc8b"/><stop offset=".77" stop-color="#fdcf3e"/><stop offset=".87" stop-color="#dea752"/><stop offset="1" stop-color="#fdcf3e"/></linearGradient></defs><g transform="translate(-1.422 -408.585)" fill="url(#A)"><path d="M1271.006 535.16a8.4 8.4 0 0 0-1.848-.2c-5.556 0-10.52 5.42-12.468 10.212-2.683 6.593-1.406 16.488-3.352 24.337a60.97 60.97 0 0 1-23.291 9.818c-11.693 1.95-21.876-2.06-31.48-8.746a30.34 30.34 0 0 0 1.056-7.49c.255-19.388-9.187-32.39-25.26-34.785-9.35-1.4-19.06 1.1-25.328 6.5a22.21 22.21 0 0 0-7.786 17.339c.013 13.088 10.62 23.695 23.707 23.7h0c10 0 13.914-6.59 15.772-12.23 3.225 3 6.8 6.2 10.724 9.187-3.708 8.5-11.68 15.486-20.58 17.044-15.94 2.82-27.473-8.55-34.344-18.564a100.67 100.67 0 0 1-6.115-10.75 87.5 87.5 0 0 0-8.12-13.607c-13.3-17.126-30.18-26.556-47.558-26.556-24.36-.018-45.905 15.796-53.2 39.04s1.38 48.527 21.4 62.417c-40.906 12.857-85.325-3.63-107.935-40.064 2.47-.882 4.95-1.825 7.433-2.888 18.908-5.112 35.854-15.057 49.5-32.855 13.816-18.022 15.45-40.387 22.427-61.306-.67 2.01-28.942 12.7-32.217 15.192-24.086 18.328-23.7 49.493-42.74 70.552-2.12 2.33-4.555 4.355-7.234 6.013-.07.027-.143.046-.217.073a93.99 93.99 0 0 1 118.259-131.66l-1.775-.255a18.43 18.43 0 0 1 2.053.363c2.13.878 4.24 1.806 6.3 2.83 1.408 1.035 2.658 2.27 3.712 3.662 7.155 9.346 7.285 25.694 13.3 34.765 3.3 4.97 9.76 9.98 16.116 9.98 1.566.007 3.115-.318 4.545-.955 6.1-2.707 7.523-9.276 5.533-15.15-3.06-9.04-11.39-17.922-19.964-24-29.65-25.507-71.444-31.395-106.987-15.073s-58.312 51.862-58.286 90.973c-.013 16.146 3.904 32.053 11.414 46.346-30.266 8.592-52.635.116-64.612-6.922a122.31 122.31 0 0 1-35.742-32.874c1.814 1.61 3.715 3.12 5.694 4.524 7.168 5.016 15.097 8.844 23.482 11.337a47.81 47.81 0 0 0 37.8-5.089c6.082-3.58 21.62-13.684 10.893-21.09-19.933-13.746-36.625 9.88-54.34 12.14-9.928 1.272-19.244-.592-26.427-6.032a92.22 92.22 0 0 1-7.295-13.216c-9.6-21.707-21.547-37.124-37.278-48.04a32 32 0 0 0 3.337.2 28.7 28.7 0 0 0 6.533-.754c6.813 6.012 13.245 13.738 19.75 23.76l3.062 4.818c5.968 9.47 12.727 20.2 22.436 26.34 4.092 2.594 8.82 4.005 13.665 4.08 10 0 14.13-6.63 18.28-14.55a137.76 137.76 0 0 0 6.446-12.95c1.856-4.7 3.134-10.076 2.208-15.115-.61-3.322-2.93-6.1-6.41-6.1-.2 0-.4.015-.613.03-4.754.43-7.525 6.07-7.85 10.312-.076 2.217.178 4.434.752 6.577l-.14.1c.1.15.186.33.282.483.712 2.978 1.637 6.07 2.063 9.048-.093 5.59-2.14 11.515-5.744 14.817a13.52 13.52 0 0 1-9.327 3.325 22.08 22.08 0 0 1-11.48-3.43c-8.946-5.653-15.173-15.532-21.193-25.087l-3.094-4.868a121.1 121.1 0 0 0-18.746-23.041c12.988-5.932 24.948-25.362 19.424-39.282-6.74-17-21.243-23.243-37.43-23.243a75.64 75.64 0 0 0-14.193 1.431c0 0 44.822 5.978 27.887 36.853 0 0-4.667 14.778-29.812 14.778a69.99 69.99 0 0 1-3.648-.108c-.45-.12-.9-.225-1.346-.333 12.74-2.985 24.74-9.24 27.972-19.968 1.547-5.127 1.216-9.787-.953-13.49-2.225-3.805-6.272-6.454-11.7-7.66-18.643-4.145-30.328 10.02-41.636 23.718-6.016 7.3-12.2 14.766-19.384 19.35a82.1 82.1 0 0 0-10.581 4.122c-10.143 1.314-19.866-4.49-23.523-14.04-.864-2.24-1.19-4.652-.95-7.04.57-.997 1.33-1.872 2.237-2.575 4.628-3.654 12.814-3.843 17.313-6.922 3.062-2.1 6.11-6.65 4.36-10.428-.896-1.968-2.893-3.198-5.054-3.113-.88.007-1.753.163-2.58.46-4.542 1.616-8.946 5.916-11.93 10.3-6.136 6.187-7.91 12.9-5.265 20.02 3.4 8.88 11.694 14.935 21.186 15.467-33.6 18.29-48.12 56.446-53.432 75.315-5.315-18.87-19.828-57.026-53.434-75.315 9.492-.53 17.787-6.588 21.184-15.467 2.646-7.118.872-13.835-5.265-20.02-2.98-4.385-7.39-8.685-11.93-10.3-.828-.297-1.7-.453-2.58-.46a5.32 5.32 0 0 0-5.053 3.113c-1.75 3.778 1.3 8.325 4.36 10.428 4.5 3.078 12.687 3.267 17.313 6.922.908.702 1.67 1.577 2.237 2.575a15.29 15.29 0 0 1-.949 7.041c-3.657 9.55-13.38 15.354-23.523 14.04-3.427-1.617-6.963-2.994-10.58-4.122-7.182-4.582-13.365-12.053-19.384-19.35-11.308-13.7-22.993-27.864-41.633-23.718-5.432 1.206-9.483 3.855-11.708 7.66-2.167 3.7-2.5 8.364-.953 13.49 3.233 10.726 15.233 16.983 27.975 19.968l-1.35.333a69.99 69.99 0 0 1-3.648.108c-25.14 0-29.812-14.778-29.812-14.778-16.934-30.876 27.89-36.853 27.89-36.853-4.676-.923-9.43-1.402-14.195-1.43-16.186 0-30.688 6.24-37.43 23.243-5.523 13.92 6.436 33.35 19.426 39.282a121.2 121.2 0 0 0-18.747 23.041l-3.092 4.868c-6.02 9.555-12.25 19.434-21.2 25.087a22.07 22.07 0 0 1-11.48 3.43c-3.418.11-6.75-1.077-9.327-3.325-3.6-3.3-5.65-9.226-5.744-14.817.425-2.977 1.353-6.07 2.067-9.048.095-.154.176-.332.278-.483l-.14-.1c.574-2.143.828-4.36.752-6.577-.327-4.242-3.1-9.883-7.85-10.312-.207-.015-.412-.03-.613-.03-3.482 0-5.8 2.776-6.41 6.1-.926 5.038.354 10.425 2.2 15.115a137.75 137.75 0 0 0 6.444 12.95c4.15 7.92 8.286 14.55 18.28 14.55a26.28 26.28 0 0 0 13.667-4.079c9.707-6.136 16.47-16.87 22.434-26.34l3.066-4.818c6.5-10.022 12.936-17.748 19.75-23.76a28.69 28.69 0 0 0 6.535.754 32.1 32.1 0 0 0 3.337-.2c-15.736 10.915-27.683 26.332-37.283 48.04-2.065 4.598-4.505 9.018-7.294 13.216-7.18 5.44-16.5 7.3-26.427 6.032-17.71-2.262-34.405-25.887-54.336-12.14-10.728 7.4 4.812 17.508 10.895 21.09a47.8 47.8 0 0 0 37.8 5.089c8.385-2.494 16.313-6.322 23.48-11.337 1.98-1.402 3.88-2.913 5.694-4.524a122.33 122.33 0 0 1-35.74 32.874c-11.977 7.038-34.346 15.513-64.614 6.922 16.247-31.02 15.1-68.277-3.05-98.23s-50.62-48.24-85.637-48.216a100.55 100.55 0 0 0-65.173 24.2c-8.57 6.082-16.905 14.964-19.962 24-2 5.873-.56 12.443 5.53 15.15a11.05 11.05 0 0 0 4.547.955c6.355 0 12.824-5.01 16.114-9.98 6.01-9.07 6.14-25.42 13.3-34.765 1.055-1.393 2.306-2.627 3.714-3.662 2.063-1.025 4.17-1.953 6.3-2.83.677-.16 1.362-.28 2.053-.363-.6.07-1.182.162-1.775.255 36.737-14.95 78.903-5.243 105.407 24.263s31.648 72.468 12.86 107.396c-.073-.027-.145-.046-.217-.073-2.68-1.657-5.113-3.68-7.23-6.013-19.047-21.058-18.657-52.223-42.745-70.552-3.273-2.5-31.542-13.18-32.215-15.192 6.973 20.92 8.61 43.284 22.425 61.306 13.646 17.8 30.59 27.744 49.5 32.855 2.484 1.063 4.96 2.007 7.434 2.888-22.608 36.435-67.027 52.924-107.933 40.067 20.012-13.9 28.676-39.172 21.4-62.417s-28.83-39.06-53.2-39.04c-17.383 0-34.27 9.43-47.562 26.556a87.64 87.64 0 0 0-8.118 13.607c-1.818 3.704-3.86 7.294-6.113 10.75-6.875 10.015-18.407 21.383-34.348 18.564-8.9-1.558-16.87-8.55-20.577-17.044 3.92-3 7.5-6.183 10.72-9.187 1.86 5.64 5.782 12.234 15.778 12.23h0c13.086-.018 23.687-10.624 23.7-23.7.133-6.654-2.724-13.018-7.786-17.34-6.268-5.4-15.975-7.9-25.327-6.5-16.075 2.394-25.516 15.4-25.263 34.785a30.6 30.6 0 0 0 1.056 7.49c-9.6 6.686-19.786 10.7-31.48 8.746a60.98 60.98 0 0 1-23.289-9.818c-1.948-7.85-.67-17.744-3.352-24.337-1.95-4.79-6.916-10.212-12.47-10.212a8.43 8.43 0 0 0-1.846.2C3 536.3.913 541.062 1.526 545.83c1.212 9.4 9.036 19.948 16.286 25.748 2.313 1.814 4.79 3.41 7.4 4.764a66.31 66.31 0 0 0 22.815 8.885c13.2 2.2 24.82-2.378 34.61-8.862 4.665 9.767 13.94 17.523 24.51 19.388 19.053 3.345 32.445-9.613 40.3-21.077a107.49 107.49 0 0 0 6.5-11.38c2.124-4.45 4.643-8.697 7.528-12.694 7.03-9.056 21.94-24.244 42.843-24.244a49.74 49.74 0 0 1 24.671 92.936c-9.007-3.637-17.4-8.64-24.882-14.833a21.99 21.99 0 0 0 8.781-1.992c9.2-4.122 15.64-13.81 15.66-23.56.01-8.497-3.386-16.643-9.43-22.616a30.39 30.39 0 0 0-21.239-9.129h0c-10.684 0-22.13 5.576-29.874 14.542-11.658 13.518-9.732 32.472-4.542 44.594 6.637 15.513 22.672 25.54 40.855 25.54a55.38 55.38 0 0 0 25.083-5.986c45.08 16.777 95.716-.942 120.5-42.166a99.13 99.13 0 0 0 28.335 4.338c14.865.07 29.473-3.874 42.282-11.418a126.9 126.9 0 0 0 31.188-26.5l-.76 1.346s10.328 78.126-36.85 54.787c9.748 4.818 20.035 8.916 31.133 6.577 19.1-4.02 26.166-24.27 28.242-41.482 1.66-13.73-5.43-36.115-3.05-51.117a146.56 146.56 0 0 1 4.493-8.793c-4.206 14.49-3.28 29.99 2.623 43.875 14.36 33.648 67.076 53.236 93.763 23.9 6.9-7.587 13.512-18.746 16.472-28.6 1.53-5.108 9.41-26.212 18.887-26.212a7.51 7.51 0 0 1 4.652 1.771 33.58 33.58 0 0 0-20.752-6.948c-8.895-.032-17.483 3.248-24.093 9.2-12.373 11.34-15.535 29.816-27.54 41.2-6.767 6.415-14.277 9.307-21.96 9.307a32.17 32.17 0 0 1-5.957-.568 131.67 131.67 0 0 1-13.814-8.932c13.592 1.767 28.554-10.084 33.093-21.15 4.1-10 5.726-29.336 15.762-35.643-17 10.68-29.406 7.552-35 29.607-3.683 14.55-11.122 21.22-25.425 15.5a29.12 29.12 0 0 1-2.6-4.76c-7.668-17.965-5.976-38.392 4.646-56.036 5.104-8.535 12.02-15.844 20.26-21.4l.986-.618-.015-.03a58.86 58.86 0 0 1 26.839-9.322c34.9-2.93 62.36 11.384 81.658 42.54a150.8 150.8 0 0 1 18.838 48.643l3.275-.538 3.273.538c3.404-17.186 9.78-33.647 18.837-48.643 19.3-31.158 46.757-45.472 81.66-42.54a58.82 58.82 0 0 1 26.837 9.322l-.013.03c.335.2.655.414.988.618a67.86 67.86 0 0 1 20.257 21.41c10.622 17.644 12.318 38.072 4.646 56.036-.716 1.665-1.586 3.258-2.6 4.76-14.3 5.73-21.74-.94-25.425-15.5-5.588-22.055-18-18.927-34.992-29.607 10.034 6.307 11.656 25.64 15.76 35.643 4.542 11.067 19.5 22.918 33.095 21.15a131.9 131.9 0 0 1-13.815 8.932c-1.962.374-3.955.564-5.953.568-7.685 0-15.2-2.892-21.963-9.307-12-11.384-15.167-29.86-27.54-41.2a35.8 35.8 0 0 0-24.089-9.2 33.59 33.59 0 0 0-20.748 6.952 7.51 7.51 0 0 1 4.652-1.771c9.477 0 17.358 21.1 18.887 26.212 2.96 9.864 9.568 21.023 16.472 28.6 26.692 29.336 79.4 9.748 93.763-23.9a65.48 65.48 0 0 0 2.624-43.875c1.554 2.8 3.05 5.715 4.493 8.793 2.38 15-4.706 37.387-3.05 51.117 2.078 17.21 9.143 37.46 28.244 41.482 11.1 2.34 21.385-1.76 31.13-6.577-47.177 23.34-36.85-54.787-36.85-54.787l-.76-1.346a126.88 126.88 0 0 0 31.192 26.5 82.52 82.52 0 0 0 42.278 11.418 99.1 99.1 0 0 0 28.333-4.338c24.785 41.223 75.42 58.942 120.5 42.166a55.39 55.39 0 0 0 25.087 5.986c18.18 0 34.214-10.026 40.855-25.54 5.187-12.122 7.113-31.076-4.545-44.594-7.743-8.967-19.188-14.542-29.87-14.542h-.006c-8.006.126-15.638 3.407-21.238 9.13-6.042 5.974-9.44 14.12-9.43 22.616.025 9.748 6.46 19.438 15.66 23.56a22 22 0 0 0 8.781 1.992 94.6 94.6 0 0 1-24.878 14.833c-19.593-11.184-29.205-34.154-23.417-55.96s25.527-36.983 48.088-36.977c20.9 0 35.81 15.188 42.84 24.244 2.887 3.996 5.408 8.245 7.53 12.694a107.54 107.54 0 0 0 6.494 11.38c7.865 11.465 21.257 24.422 40.3 21.077 10.573-1.864 19.846-9.62 24.51-19.388 9.79 6.484 21.406 11.062 34.61 8.862a66.26 66.26 0 0 0 22.812-8.885c2.6-1.353 5.087-2.948 7.4-4.764 7.25-5.8 15.075-16.348 16.285-25.748.616-4.77-1.476-9.543-6.52-10.672zm-302.883 7.954c5.523-13.5 10.307-25.172 20.9-33.408 1.15-.618 4-1.89 7-3.194-3.078 11.9-6.517 23.037-13.58 32.244-5.678 7.542-12.685 13.985-20.675 19.013 2.35-4.87 4.366-9.79 6.356-14.655zM1092.69 482.6c.346 1.025 1.274 4.466-1.363 5.638a3.42 3.42 0 0 1-1.409.282c-2.962 0-7.3-2.92-9.7-6.52-2.1-3.178-3.44-8.305-4.856-13.73l-2.036-7.37c8.03 5.182 16.626 13.65 19.354 21.7zm-229.072 10.93c.207-2.69 1.958-6.067 3.828-6.237.073 0 .14-.008.215-.008 1.522 0 1.972 2.045 2.047 2.455.644 3.488-.02 7.76-1.966 12.68-.5 1.276-1.065 2.517-1.665 3.758-.315-1.5-.7-2.977-1.062-4.42l-.613-2.44-.143-.588c-.452-1.695-.668-3.445-.64-5.2zM690.264 427.26c.41-.153.845-.234 1.284-.24.657-.097 1.297.265 1.553.878.684 1.48-1.1 4.28-3.043 5.61-1.57 1.08-4.13 1.786-6.838 2.54-1.22.336-2.46.677-3.683 1.075 2.534-4.06 6.7-8.44 10.727-9.864zm-94.432 8.79c-2.708-.754-5.266-1.462-6.836-2.54-1.94-1.33-3.725-4.13-3.04-5.61a1.45 1.45 0 0 1 1.551-.878 3.87 3.87 0 0 1 1.288.24c4.012 1.423 8.188 5.8 10.722 9.864-1.223-.398-2.462-.738-3.684-1.074zm-181.04 62.68l-.14.588-.61 2.44c-.37 1.442-.75 2.923-1.065 4.42a52.82 52.82 0 0 1-1.659-3.758c-1.953-4.918-2.612-9.19-1.972-12.68.076-.4.528-2.455 2.047-2.455.074 0 .14 0 .217.008 1.868.17 3.62 3.546 3.826 6.237a18.99 18.99 0 0 1-.641 5.199zm-211.11-30.457c-1.417 5.425-2.76 10.552-4.858 13.73-2.384 3.6-6.728 6.52-9.688 6.52a3.44 3.44 0 0 1-1.412-.282c-2.635-1.172-1.71-4.613-1.36-5.638 2.726-8.05 11.323-16.52 19.355-21.7-.748 2.437-1.396 4.92-2.036 7.37zm92.92 70.485c-7.06-9.207-10.5-20.343-13.58-32.244 3.008 1.3 5.858 2.575 7 3.194 10.593 8.236 15.376 19.91 20.9 33.408 1.99 4.864 4.008 9.787 6.35 14.655-8-5.028-14.996-11.47-20.674-19.013zm-289.148 6.31c-.108-.83-.288-3.585 1.895-4.072.178-.042.36-.062.543-.062 2.245 0 5.55 3.094 6.933 6.5 1.114 2.726 1.346 6.832 1.6 11.175l.42 5.912c-5.31-5.17-10.55-12.92-11.4-19.453zM85.4 563.013c-.1-7.74 1.66-26.038 20.166-28.79 7.693-1.148 15.56.816 20.546 5.116 3.75 3.18 5.853 7.894 5.713 12.8a17.76 17.76 0 0 1-17.725 17.736h0c-6.262 0-9.2-3.28-11.244-12.524l-1.14-5.166-3.836 3.634c-4.02 3.817-8.044 7.506-12.147 10.8-.203-1.195-.315-2.403-.334-3.615zm118.92 62.853c-15.784 0-29.667-8.6-35.365-21.916-4.512-10.54-6.283-26.908 3.577-38.334 6.64-7.694 16.35-12.474 25.348-12.474h0c6.42.123 12.532 2.772 17 7.374a25.83 25.83 0 0 1 7.681 18.382c-.015 7.474-5 14.93-12.124 18.12a14.99 14.99 0 0 1-16.828-2.668l-1.98 2.24-2.233 1.987c9.055 10.15 20.083 18.35 32.41 24.1a49.51 49.51 0 0 1-17.497 3.191zM545.8 576.83c7.142-6.77 11.372-15 15.465-22.95 3.6-6.987 6.987-13.588 11.956-18.143 3.634-3.264 8.13-5.416 12.95-6.2-3.345 5.733-6.005 11.84-7.925 18.193-6.6 22.006-21.59 35.678-39.125 35.678a33.42 33.42 0 0 1-1.97-.058 46.75 46.75 0 0 0 8.648-6.521zm-53.927-112.2c-5.467-1.466-11.8-7.494-15.39-14.655-2.856-5.684-3.586-11.225-2.01-15.208 1.382-3.62 3.482-6.925 6.175-9.713-2.18 5.7-2.943 14.156 2.844 25.056 1.556 4.122 5.392 9.492 12.32 13.556l-1.978 1.357a19.36 19.36 0 0 1-1.963-.397zm43.4-5.046c-1.537.128-3.057.333-4.57.577-10.852-1.887-27.33-6.8-31.152-19.492-1.38-4.578-1.115-8.7.764-11.91 1.94-3.318 5.547-5.638 10.42-6.728 17.456-3.874 28.24 9.2 39.666 23.045 4.892 5.93 9.887 11.98 15.5 16.584-10.03-2.325-20.368-3.027-30.62-2.08zm204.68 123.823c-17.535 0-32.53-13.672-39.13-35.678-1.92-6.353-4.58-12.46-7.923-18.193 4.822.784 9.317 2.936 12.95 6.2 4.97 4.555 8.364 11.155 11.954 18.143 4.094 7.95 8.325 16.178 15.467 22.95a46.66 46.66 0 0 0 8.646 6.519q-.988.06-1.966.06zm55.624-133.3c5.8-10.9 5.025-19.357 2.844-25.056a28.8 28.8 0 0 1 6.181 9.713c1.575 3.982.843 9.523-2.01 15.208-3.6 7.16-9.928 13.19-15.4 14.655a19.21 19.21 0 0 1-1.962.394c-.65-.472-1.317-.913-1.978-1.357 6.932-4.063 10.768-9.435 12.325-13.557zm-82.39 11.55c5.6-4.605 10.6-10.653 15.488-16.584 11.428-13.843 22.2-26.92 39.668-23.045 4.876 1.1 8.476 3.4 10.417 6.728 1.88 3.21 2.144 7.33.764 11.91-3.82 12.69-20.3 17.605-31.15 19.492-1.514-.244-3.035-.45-4.57-.577-10.25-.947-20.588-.246-30.617 2.077zm376.465 136.92l-2.227-1.987-1.985-2.24c-4.508 4.3-11.208 5.364-16.826 2.668-7.123-3.2-12.1-10.645-12.126-18.12-.001-6.908 2.767-13.53 7.683-18.382 4.477-4.6 10.59-7.25 17.008-7.374h.006c8.994 0 18.7 4.78 25.344 12.474 9.86 11.426 8.09 27.794 3.577 38.334-5.7 13.313-19.58 21.916-35.36 21.916-5.978.003-11.907-1.076-17.5-3.186a100.16 100.16 0 0 0 32.408-24.106zm103.673-31.942c-4.1-3.3-8.126-6.987-12.143-10.8l-3.838-3.634-1.14 5.166c-2.043 9.245-4.984 12.524-11.24 12.524h0c-9.79-.014-17.72-7.947-17.733-17.736-.14-4.916 1.96-9.63 5.71-12.8 5-4.3 12.857-6.264 20.546-5.116 18.508 2.753 20.273 21.05 20.166 28.79-.016 1.21-.126 2.42-.328 3.614zm78.28-21.565c-.84 6.535-6.077 14.283-11.387 19.45.2-1.976.31-3.96.423-5.912.245-4.342.483-8.45 1.595-11.175 1.383-3.4 4.686-6.5 6.93-6.5a2.35 2.35 0 0 1 .543.062c2.186.49 2 3.244 1.9 4.076z"/><path d="M1.526 545.83c1.212 9.4 9.036 19.948 16.286 25.748 2.313 1.814 4.79 3.41 7.4 4.764a66.31 66.31 0 0 0 22.815 8.885c13.2 2.2 24.82-2.378 34.61-8.862 4.665 9.767 13.94 17.523 24.51 19.388 19.053 3.345 32.445-9.613 40.3-21.077a107.49 107.49 0 0 0 6.5-11.38c2.124-4.45 4.643-8.697 7.528-12.694 7.03-9.056 21.94-24.244 42.843-24.244a49.74 49.74 0 0 1 24.667 92.936 94.6 94.6 0 0 1-24.878-14.833 21.99 21.99 0 0 0 8.781-1.992c9.2-4.122 15.64-13.81 15.66-23.56.01-8.497-3.386-16.643-9.43-22.616a30.39 30.39 0 0 0-21.239-9.129h0c-10.684 0-22.13 5.576-29.874 14.542-11.658 13.518-9.732 32.472-4.542 44.594 6.637 15.513 22.672 25.54 40.855 25.54a55.38 55.38 0 0 0 25.083-5.986c45.08 16.776 95.715-.943 120.5-42.166a99.11 99.11 0 0 0 28.333 4.338c14.865.07 29.473-3.874 42.282-11.418a126.9 126.9 0 0 0 31.188-26.5l-.76 1.346s10.328 78.126-36.85 54.787c9.748 4.818 20.035 8.916 31.133 6.577 19.1-4.02 26.166-24.27 28.242-41.482 1.66-13.73-5.43-36.115-3.05-51.117a146.56 146.56 0 0 1 4.493-8.793c-4.206 14.49-3.28 29.99 2.623 43.875 14.36 33.648 67.076 53.236 93.763 23.9 6.9-7.587 13.512-18.746 16.472-28.6 1.53-5.108 9.41-26.212 18.887-26.212a7.51 7.51 0 0 1 4.652 1.771 33.58 33.58 0 0 0-20.75-6.948c-8.895-.032-17.483 3.248-24.093 9.2-12.373 11.34-15.535 29.816-27.54 41.2-6.767 6.415-14.277 9.307-21.96 9.307a32.17 32.17 0 0 1-5.957-.568 131.67 131.67 0 0 1-13.814-8.932c13.592 1.767 28.554-10.084 33.093-21.15 4.1-10 5.726-29.336 15.762-35.643-17 10.68-29.406 7.552-35 29.607-3.683 14.55-11.122 21.22-25.425 15.5a29.12 29.12 0 0 1-2.6-4.76c-7.668-17.965-5.976-38.392 4.646-56.036 5.104-8.535 12.02-15.844 20.26-21.4l.986-.618-.015-.03a58.85 58.85 0 0 1 26.839-9.322c34.9-2.93 62.36 11.384 81.658 42.54a150.8 150.8 0 0 1 18.838 48.643l3.275-.538 3.273.538c3.404-17.186 9.78-33.647 18.837-48.643 19.3-31.158 46.757-45.472 81.66-42.54 9.573.87 18.787 4.07 26.837 9.322l-.013.03c.335.2.655.414.988.618a67.88 67.88 0 0 1 20.257 21.41c10.622 17.644 12.318 38.072 4.646 56.036-.716 1.665-1.586 3.258-2.6 4.76-14.3 5.73-21.74-.94-25.425-15.5-5.588-22.055-18-18.927-34.992-29.607 10.034 6.307 11.656 25.64 15.76 35.643 4.542 11.067 19.5 22.918 33.095 21.15a131.9 131.9 0 0 1-13.815 8.932c-1.962.374-3.955.564-5.953.568-7.685 0-15.2-2.892-21.963-9.307-12-11.384-15.167-29.86-27.54-41.2a35.8 35.8 0 0 0-24.089-9.2 33.59 33.59 0 0 0-20.748 6.952 7.51 7.51 0 0 1 4.652-1.771c9.477 0 17.358 21.1 18.887 26.212 2.96 9.864 9.568 21.023 16.472 28.6 26.692 29.336 79.4 9.748 93.763-23.9a65.48 65.48 0 0 0 2.624-43.875c1.554 2.8 3.05 5.715 4.493 8.793 2.38 15-4.706 37.387-3.05 51.117 2.078 17.21 9.143 37.46 28.244 41.482 11.1 2.34 21.385-1.76 31.13-6.577-47.177 23.34-36.85-54.787-36.85-54.787l-.76-1.346a126.88 126.88 0 0 0 31.192 26.5 82.52 82.52 0 0 0 42.278 11.418 99.12 99.12 0 0 0 28.335-4.338c24.784 41.224 75.42 58.943 120.5 42.166a55.4 55.4 0 0 0 25.087 5.986c18.18 0 34.214-10.026 40.855-25.54 5.187-12.122 7.113-31.076-4.545-44.594-7.743-8.967-19.188-14.542-29.87-14.542h-.006c-8.006.126-15.638 3.407-21.238 9.13-6.042 5.974-9.44 14.12-9.43 22.616.025 9.748 6.46 19.438 15.66 23.56a22 22 0 0 0 8.781 1.992 94.6 94.6 0 0 1-24.878 14.833c-19.593-11.184-29.205-34.154-23.417-55.96s25.527-36.983 48.088-36.977c20.9 0 35.81 15.188 42.84 24.244 2.887 3.996 5.408 8.245 7.53 12.694a107.54 107.54 0 0 0 6.494 11.38c7.865 11.465 21.257 24.422 40.3 21.077 10.573-1.864 19.846-9.62 24.51-19.388 9.79 6.484 21.406 11.062 34.61 8.862a66.26 66.26 0 0 0 22.812-8.885c2.6-1.353 5.087-2.948 7.4-4.764 7.25-5.8 15.075-16.348 16.285-25.748.617-4.768-1.475-9.54-6.517-10.668a8.4 8.4 0 0 0-1.848-.2c-5.556 0-10.52 5.42-12.468 10.212-2.683 6.593-1.406 16.488-3.352 24.337a60.97 60.97 0 0 1-23.291 9.818c-11.693 1.95-21.876-2.06-31.48-8.746a30.34 30.34 0 0 0 1.056-7.49c.255-19.388-9.187-32.39-25.26-34.785-9.35-1.4-19.06 1.1-25.328 6.5a22.21 22.21 0 0 0-7.786 17.339c.013 13.088 10.62 23.695 23.707 23.7h0c10 0 13.914-6.59 15.772-12.23 3.225 3 6.8 6.2 10.724 9.187-3.708 8.5-11.68 15.486-20.58 17.044-15.94 2.82-27.473-8.55-34.344-18.564a100.67 100.67 0 0 1-6.115-10.75 87.5 87.5 0 0 0-8.12-13.607c-13.3-17.126-30.18-26.556-47.558-26.556-24.36-.018-45.905 15.796-53.2 39.04s1.38 48.527 21.4 62.417C1002.03 634.7 957.6 618.21 935 581.774c2.47-.882 4.95-1.825 7.433-2.888 18.908-5.112 35.854-15.057 49.5-32.855 13.816-18.022 15.45-40.387 22.427-61.306-.67 2.01-28.942 12.7-32.217 15.192-24.086 18.328-23.7 49.493-42.74 70.552-2.12 2.33-4.555 4.355-7.234 6.013-.07.027-.143.046-.217.073a93.99 93.99 0 0 1 118.259-131.66l-1.775-.255a18.43 18.43 0 0 1 2.053.363c2.13.878 4.24 1.806 6.3 2.83 1.408 1.035 2.658 2.27 3.712 3.662 7.155 9.346 7.285 25.694 13.3 34.765 3.3 4.97 9.76 9.98 16.116 9.98 1.566.007 3.115-.318 4.545-.955 6.1-2.707 7.523-9.276 5.533-15.15-3.06-9.04-11.39-17.922-19.964-24-29.65-25.507-71.444-31.395-106.987-15.073s-58.312 51.862-58.286 90.973c-.013 16.146 3.904 32.053 11.414 46.346-30.266 8.592-52.635.116-64.612-6.922a122.31 122.31 0 0 1-35.742-32.874c1.814 1.61 3.715 3.12 5.694 4.524 7.168 5.016 15.097 8.844 23.482 11.337a47.81 47.81 0 0 0 37.8-5.089c6.082-3.58 21.62-13.684 10.893-21.09-19.933-13.746-36.625 9.88-54.34 12.14-9.928 1.272-19.244-.592-26.427-6.032a92.22 92.22 0 0 1-7.295-13.216c-9.6-21.707-21.547-37.124-37.278-48.04a32 32 0 0 0 3.337.2 28.71 28.71 0 0 0 6.533-.754c6.813 6.012 13.245 13.738 19.75 23.76l3.062 4.818c5.968 9.47 12.727 20.2 22.436 26.34 4.092 2.594 8.82 4.005 13.665 4.08 10 0 14.13-6.63 18.28-14.55a137.76 137.76 0 0 0 6.446-12.95c1.856-4.7 3.134-10.076 2.208-15.115-.61-3.322-2.93-6.1-6.41-6.1-.2 0-.4.015-.613.03-4.754.43-7.525 6.07-7.85 10.312-.076 2.217.178 4.434.752 6.577l-.14.1c.1.15.186.33.282.483.712 2.978 1.637 6.07 2.063 9.048-.093 5.59-2.14 11.515-5.744 14.817a13.52 13.52 0 0 1-9.327 3.325 22.08 22.08 0 0 1-11.48-3.43c-8.946-5.653-15.173-15.532-21.193-25.087l-3.094-4.868c-5.28-8.42-11.577-16.158-18.746-23.04 12.988-5.932 24.952-25.362 19.424-39.282-6.74-17-21.243-23.243-37.43-23.243a75.64 75.64 0 0 0-14.193 1.431c0 0 44.822 5.978 27.887 36.853 0 0-4.667 14.778-29.812 14.778a69.99 69.99 0 0 1-3.648-.108c-.45-.12-.9-.225-1.347-.333 12.742-2.985 24.74-9.24 27.973-19.968 1.547-5.127 1.216-9.787-.953-13.49-2.225-3.805-6.272-6.454-11.7-7.66-18.643-4.145-30.328 10.02-41.636 23.718-6.016 7.3-12.2 14.766-19.384 19.35a82.1 82.1 0 0 0-10.581 4.122c-10.143 1.314-19.866-4.49-23.523-14.04-.864-2.24-1.19-4.652-.95-7.04.57-.997 1.33-1.872 2.237-2.575 4.628-3.654 12.814-3.843 17.313-6.922 3.062-2.1 6.11-6.65 4.36-10.428-.896-1.968-2.893-3.198-5.054-3.113-.88.007-1.753.163-2.58.46-4.542 1.616-8.946 5.916-11.93 10.3-6.136 6.187-7.91 12.9-5.265 20.02a24.13 24.13 0 0 0 21.186 15.467c-33.6 18.29-48.12 56.446-53.432 75.315-5.315-18.87-19.828-57.026-53.434-75.315a24.13 24.13 0 0 0 21.184-15.467c2.646-7.118.872-13.835-5.265-20.02-2.98-4.385-7.39-8.685-11.93-10.3-.828-.297-1.7-.453-2.58-.46a5.32 5.32 0 0 0-5.053 3.113c-1.75 3.778 1.3 8.325 4.36 10.428 4.5 3.078 12.687 3.267 17.313 6.922.908.702 1.67 1.577 2.237 2.575a15.29 15.29 0 0 1-.949 7.041c-3.657 9.55-13.38 15.354-23.523 14.04-3.427-1.617-6.963-2.994-10.58-4.122-7.182-4.582-13.365-12.053-19.384-19.35-11.308-13.7-22.993-27.864-41.633-23.718-5.432 1.206-9.483 3.855-11.708 7.66-2.167 3.7-2.5 8.364-.953 13.49 3.233 10.726 15.233 16.983 27.973 19.968l-1.347.333c-1.253.066-2.48.108-3.648.108-25.14 0-29.812-14.778-29.812-14.778-16.934-30.876 27.89-36.853 27.89-36.853-4.676-.923-9.43-1.402-14.195-1.43-16.186 0-30.688 6.24-37.43 23.243-5.523 13.92 6.436 33.35 19.426 39.282-7.17 6.882-13.467 14.62-18.747 23.04l-3.092 4.868c-6.02 9.555-12.25 19.434-21.2 25.087a22.07 22.07 0 0 1-11.48 3.43c-3.418.11-6.75-1.077-9.327-3.325-3.6-3.3-5.65-9.226-5.744-14.817.425-2.977 1.353-6.07 2.067-9.048.095-.154.176-.332.278-.483l-.14-.1c.574-2.143.828-4.36.752-6.577-.327-4.242-3.1-9.883-7.85-10.312-.207-.015-.412-.03-.613-.03-3.482 0-5.8 2.776-6.41 6.1-.926 5.038.354 10.425 2.2 15.115a137.75 137.75 0 0 0 6.444 12.95c4.15 7.92 8.286 14.55 18.28 14.55a26.28 26.28 0 0 0 13.667-4.079c9.707-6.136 16.47-16.87 22.434-26.34l3.066-4.818c6.5-10.022 12.938-17.748 19.75-23.76a28.69 28.69 0 0 0 6.535.754 32.1 32.1 0 0 0 3.337-.2c-15.736 10.915-27.683 26.332-37.283 48.04-2.065 4.598-4.505 9.018-7.294 13.216-7.18 5.44-16.5 7.3-26.427 6.032-17.71-2.262-34.405-25.887-54.336-12.14-10.728 7.4 4.812 17.508 10.895 21.09a47.8 47.8 0 0 0 37.8 5.089c8.385-2.494 16.313-6.322 23.48-11.337 1.98-1.402 3.88-2.913 5.694-4.524a122.33 122.33 0 0 1-35.74 32.874c-11.977 7.038-34.346 15.513-64.614 6.922 16.247-31.02 15.1-68.277-3.05-98.23s-50.62-48.24-85.637-48.216a100.55 100.55 0 0 0-65.173 24.2c-8.57 6.082-16.905 14.964-19.962 24-2 5.873-.56 12.443 5.53 15.15a11.05 11.05 0 0 0 4.547.955c6.355 0 12.824-5.01 16.114-9.98 6.01-9.07 6.14-25.42 13.3-34.765 1.055-1.393 2.306-2.627 3.714-3.662 2.063-1.025 4.17-1.953 6.3-2.83.677-.16 1.362-.28 2.053-.363-.6.07-1.182.162-1.775.255 36.737-14.95 78.903-5.243 105.407 24.263s31.648 72.468 12.86 107.396c-.073-.027-.145-.046-.217-.073-2.68-1.657-5.113-3.68-7.23-6.013-19.047-21.058-18.657-52.223-42.745-70.552-3.273-2.5-31.542-13.18-32.215-15.192 6.973 20.92 8.61 43.284 22.425 61.306 13.646 17.8 30.59 27.744 49.5 32.855 2.484 1.063 4.965 2.007 7.434 2.888-22.608 36.435-67.027 52.924-107.933 40.067 20.012-13.9 28.676-39.172 21.4-62.417s-28.83-39.06-53.2-39.04c-17.383 0-34.27 9.43-47.562 26.556a87.64 87.64 0 0 0-8.118 13.607c-1.818 3.704-3.86 7.294-6.113 10.75-6.875 10.015-18.407 21.383-34.348 18.564-8.9-1.558-16.87-8.55-20.577-17.044 3.92-3 7.5-6.183 10.72-9.187 1.86 5.64 5.782 12.234 15.778 12.23h0c13.086-.018 23.687-10.624 23.7-23.7.133-6.654-2.724-13.018-7.786-17.34-6.268-5.4-15.975-7.9-25.327-6.5-16.075 2.394-25.516 15.4-25.263 34.785a30.6 30.6 0 0 0 1.056 7.49c-9.6 6.686-19.786 10.7-31.48 8.746a60.98 60.98 0 0 1-23.289-9.818c-1.948-7.85-.67-17.744-3.352-24.337-1.95-4.79-6.916-10.212-12.47-10.212a8.43 8.43 0 0 0-1.846.2C3 536.3.913 541.062 1.526 545.83zm315.753 11.94c-7.992-5.027-15-11.47-20.68-19.012-7.06-9.207-10.5-20.343-13.58-32.244 3.008 1.3 5.858 2.575 7 3.194 10.593 8.236 15.376 19.91 20.9 33.408 1.997 4.864 4.016 9.785 6.36 14.655zM205.72 460.9c-.748 2.436-1.4 4.918-2.036 7.37-1.417 5.425-2.76 10.552-4.858 13.73-2.384 3.6-6.728 6.52-9.688 6.52a3.44 3.44 0 0 1-1.412-.282c-2.635-1.172-1.71-4.613-1.36-5.638 2.727-8.048 11.324-16.516 19.355-21.7zm209.073 37.828l-.14.588-.61 2.44c-.37 1.442-.75 2.923-1.065 4.42a52.82 52.82 0 0 1-1.659-3.758c-1.953-4.918-2.612-9.19-1.972-12.68.076-.4.528-2.455 2.047-2.455.074 0 .14 0 .217.008 1.868.17 3.62 3.546 3.826 6.237a18.99 18.99 0 0 1-.641 5.2zm184.723-61.6c-1.222-.4-2.46-.74-3.683-1.075-2.708-.754-5.266-1.462-6.836-2.54-1.94-1.33-3.725-4.13-3.04-5.61a1.45 1.45 0 0 1 1.551-.878 3.87 3.87 0 0 1 1.288.24c4.006 1.42 8.187 5.8 10.72 9.862zm80.02 0c2.534-4.06 6.71-8.44 10.728-9.864.41-.153.845-.234 1.284-.24.657-.097 1.297.265 1.553.878.684 1.48-1.1 4.28-3.043 5.61-1.57 1.08-4.13 1.786-6.838 2.54-1.22.334-2.462.674-3.684 1.073zm184.08 56.4c.207-2.69 1.958-6.067 3.828-6.237.073 0 .14-.008.215-.008 1.522 0 1.972 2.045 2.047 2.455.644 3.488-.02 7.76-1.966 12.68-.5 1.276-1.065 2.517-1.665 3.758-.315-1.5-.7-2.977-1.062-4.42l-.613-2.44-.143-.588c-.452-1.695-.667-3.444-.64-5.198zm209.717-32.628c8.03 5.18 16.627 13.65 19.355 21.7.346 1.025 1.274 4.466-1.363 5.638a3.42 3.42 0 0 1-1.409.282c-2.962 0-7.3-2.92-9.7-6.52-2.1-3.178-3.44-8.305-4.856-13.73l-2.037-7.37zm-111.56 96.87c2.345-4.868 4.362-9.79 6.35-14.655 5.523-13.5 10.307-25.172 20.9-33.408 1.15-.618 4-1.89 7-3.194-3.078 11.9-6.517 23.037-13.58 32.244-5.677 7.542-12.682 13.985-20.67 19.013zm298.436 6.747c.2-1.976.31-3.96.423-5.912.245-4.342.483-8.45 1.595-11.175 1.383-3.4 4.686-6.5 6.93-6.5a2.35 2.35 0 0 1 .543.062c2.185.487 2 3.24 1.9 4.072-.844 6.536-6.08 14.287-11.392 19.453zm-66.892 2.115c-4.1-3.3-8.126-6.987-12.143-10.8l-3.838-3.634-1.14 5.166c-2.043 9.245-4.984 12.524-11.24 12.524h0c-9.788-.015-17.718-7.948-17.73-17.736-.14-4.916 1.96-9.63 5.71-12.8 5-4.3 12.857-6.264 20.546-5.116 18.508 2.753 20.273 21.05 20.166 28.79-.017 1.212-.128 2.42-.33 3.615zm-136.084 56.047a100.16 100.16 0 0 0 32.41-24.1l-2.227-1.987-1.985-2.24c-4.508 4.3-11.208 5.364-16.826 2.668-7.123-3.2-12.1-10.645-12.126-18.12-.001-6.908 2.767-13.53 7.683-18.382 4.477-4.6 10.59-7.25 17.008-7.374h.006c8.994 0 18.7 4.78 25.344 12.474 9.86 11.426 8.09 27.794 3.577 38.334-5.7 13.313-19.58 21.916-35.36 21.916-5.98.002-11.91-1.08-17.503-3.19zM741.9 583.347q-.99.058-1.966.058c-17.535 0-32.53-13.672-39.13-35.678-1.92-6.353-4.58-12.46-7.923-18.193 4.822.784 9.317 2.936 12.95 6.2 4.97 4.555 8.364 11.155 11.954 18.143 4.094 7.95 8.325 16.178 15.467 22.95a46.66 46.66 0 0 0 8.646 6.521zm43.316-118.327c-.65-.472-1.317-.913-1.978-1.357 6.927-4.064 10.77-9.435 12.32-13.556 5.8-10.9 5.025-19.357 2.844-25.056a28.8 28.8 0 0 1 6.181 9.713c1.575 3.982.843 9.523-2.01 15.208-3.6 7.16-9.928 13.19-15.4 14.655a19.21 19.21 0 0 1-1.958.393zm-72.047-3.364c5.6-4.605 10.6-10.653 15.488-16.584 11.428-13.843 22.2-26.92 39.668-23.045 4.876 1.1 8.476 3.4 10.417 6.728 1.88 3.21 2.144 7.33.764 11.91-3.82 12.69-20.3 17.605-31.15 19.492-1.514-.244-3.035-.45-4.57-.577-10.25-.947-20.588-.246-30.618 2.077zm-176.037 121.69a46.75 46.75 0 0 0 8.648-6.519c7.142-6.77 11.372-15 15.465-22.95 3.6-6.987 6.987-13.588 11.956-18.143 3.634-3.264 8.13-5.416 12.95-6.2-3.345 5.733-6.005 11.84-7.925 18.193-6.6 22.006-21.59 35.678-39.125 35.678-.655-.001-1.307-.02-1.97-.06zM495.8 463.662l-1.978 1.357a19.36 19.36 0 0 1-1.962-.394c-5.467-1.466-11.8-7.494-15.39-14.655-2.856-5.684-3.586-11.225-2.01-15.208 1.382-3.62 3.482-6.925 6.175-9.713-2.18 5.7-2.943 14.156 2.844 25.056 1.56 4.123 5.395 9.495 12.32 13.557zm39.455-4.083c-1.537.128-3.057.333-4.57.577-10.852-1.887-27.33-6.8-31.152-19.492-1.38-4.578-1.115-8.7.764-11.91 1.94-3.318 5.547-5.638 10.42-6.728 17.456-3.874 28.24 9.2 39.666 23.045 4.892 5.93 9.887 11.98 15.5 16.584-10.028-2.322-20.363-3.024-30.613-2.077zm-313.44 163.1a49.51 49.51 0 0 1-17.5 3.186c-15.784 0-29.667-8.6-35.365-21.916-4.512-10.54-6.283-26.908 3.577-38.334 6.64-7.694 16.35-12.474 25.348-12.474h0c6.42.123 12.532 2.772 17 7.374a25.83 25.83 0 0 1 7.681 18.382c-.015 7.474-5 14.93-12.124 18.12a14.99 14.99 0 0 1-16.828-2.668l-1.98 2.24-2.233 1.987c9.057 10.153 20.087 18.355 32.418 24.105zM85.4 563.013c-.1-7.74 1.66-26.038 20.166-28.79 7.693-1.148 15.56.816 20.546 5.116 3.75 3.18 5.853 7.894 5.713 12.8a17.76 17.76 0 0 1-17.725 17.736h0c-6.26 0-9.2-3.28-11.242-12.524l-1.14-5.166-3.836 3.634c-4.02 3.817-8.044 7.506-12.147 10.8-.204-1.195-.316-2.403-.336-3.615zM9.35 541c.178-.042.36-.062.543-.062 2.245 0 5.55 3.094 6.933 6.5 1.114 2.726 1.346 6.832 1.6 11.175l.42 5.912c-5.31-5.174-10.55-12.925-11.4-19.457-.108-.832-.288-3.585 1.895-4.068z"/></g></svg>