<svg xmlns="http://www.w3.org/2000/svg" width="36.289" height="36.289" viewBox="-768.205 802.382 36.289 36.289" xmlns:v="https://vecta.io/nano"><linearGradient id="A" gradientUnits="userSpaceOnUse" x1="-763.184" y1="820.526" x2="-736.937" y2="820.526"><stop offset="0" stop-color="#00add9"/><stop offset="1" stop-color="#03cb91"/></linearGradient><path fill="url(#A)" d="M-741.09 823.06c-.573-.597-1.264-.916-1.996-.916s-1.424.313-2.02.9l-1.866 1.86-.455-.235-.585-.313c-1.748-1.11-3.337-2.557-4.86-4.43-.738-.933-1.234-1.718-1.594-2.516l1.37-1.347.496-.502c1.24-1.24 1.24-2.847 0-4.087l-1.612-1.61-.55-.562-1.1-1.1c-.573-.567-1.258-.867-1.98-.867s-1.417.3-2.008.867l-2.02 2.037c-.756.757-1.188 1.68-1.282 2.747-.142 1.724.366 3.33.756 4.382.957 2.58 2.386 4.973 4.518 7.535 2.587 3.09 5.7 5.528 9.255 7.248 1.358.644 3.172 1.405 5.197 1.535.124.006.254.012.372.012 1.365 0 2.5-.49 3.408-1.465.006-.01.018-.02.023-.03.308-.372.662-.71 1.034-1.07.254-.242.514-.496.768-.763.585-.607.892-1.316.892-2.042 0-.733-.313-1.437-.91-2.026l-3.243-3.253zm2.114 6.218c-.23.248-.466.473-.72.72-.384.366-.774.75-1.14 1.182-.596.638-1.3.938-2.22.938-.088 0-.183 0-.27-.005-1.754-.112-3.384-.797-4.606-1.383-3.343-1.617-6.278-3.915-8.718-6.826-2.014-2.427-3.36-4.673-4.252-7.08-.55-1.472-.75-2.616-.662-3.698a2.71 2.71 0 0 1 .815-1.753l2.014-2.015c.29-.27.597-.42.898-.42.372 0 .673.226.862.414.006.006.012.012.018.02a30.14 30.14 0 0 1 1.063 1.056l.56.574 1.612 1.612c.626.626.626 1.204 0 1.83l-.508.508c-.496.507-.968.98-1.482 1.44-.01.014-.023.02-.03.03-.508.51-.413 1.005-.307 1.34l.018.053c.42 1.017 1 1.973 1.908 3.112l.005.006c1.63 2.01 3.35 3.574 5.245 4.773.242.152.5.277.727.396a7.75 7.75 0 0 1 .585.312c.023.012.047.028.07.042.2.1.4.147.584.147.5 0 .797-.31.898-.407l2.02-2.02c.2-.2.52-.443.892-.443.366 0 .667.23.85.43l3.266 3.267c.606.602.606 1.222.003 1.848z"/></svg>