<svg xmlns="http://www.w3.org/2000/svg" width="36.289" height="36.288" viewBox="-768.535 850.209 36.289 36.288" xmlns:v="https://vecta.io/nano"><linearGradient id="A" gradientUnits="userSpaceOnUse" x1="-757.315" y1="868.354" x2="-743.467" y2="868.354"><stop offset="0" stop-color="#00add9"/><stop offset="1" stop-color="#03cb91"/></linearGradient><path fill="url(#A)" d="M-750.39 862.978c2.964 0 5.375 2.412 5.375 5.376 0 .427.347.774.774.774s.774-.348.774-.774c0-3.818-3.105-6.925-6.924-6.925s-6.924 3.106-6.924 6.925 3.106 6.924 6.924 6.924c2.452 0 4.744-1.316 5.982-3.435.216-.37.09-.844-.278-1.06s-.844-.09-1.06.278a5.4 5.4 0 0 1-4.645 2.667c-2.963 0-5.375-2.41-5.375-5.374s2.413-5.375 5.377-5.375z"/><linearGradient id="B" gradientUnits="userSpaceOnUse" x1="-763.687" y1="868.354" x2="-737.094" y2="868.354"><stop offset="0" stop-color="#00add9"/><stop offset="1" stop-color="#03cb91"/></linearGradient><path fill="url(#B)" d="M-737.132 867.327c-.486-6.462-5.723-11.72-12.182-12.23a13.31 13.31 0 0 0-10.479 3.852c-2.756 2.756-4.16 6.575-3.852 10.48.508 6.434 5.743 11.67 12.177 12.177.354.028.708.042 1.06.042 3.528 0 6.913-1.39 9.418-3.894.303-.303.303-.793 0-1.096s-.793-.303-1.095 0c-2.435 2.435-5.81 3.675-9.262 3.402-5.683-.448-10.307-5.07-10.755-10.755-.272-3.45.968-6.827 3.403-9.262s5.81-3.675 9.262-3.403c5.705.45 10.33 5.093 10.76 10.8a11.96 11.96 0 0 1-.051 2.334c-.098.814-.59 1.524-1.318 1.9-.658.34-1.397.34-2.028-.003-.376-.204-.846-.064-1.05.312s-.064.847.312 1.05c1.09.59 2.355.598 3.477.02a4.02 4.02 0 0 0 2.145-3.09 13.64 13.64 0 0 0 .058-2.636z"/></svg>