<svg xmlns="http://www.w3.org/2000/svg" viewBox="0 0 451.096 487.326" xmlns:v="https://vecta.io/nano"><path d="M70.074 327.374c21.268-33.82 49.58-58.92 75.227-71.906 5.89-3.036 12.098-5.407 18.512-7.068L57.03 371.537c-.67-9.958 1.17-25.28 13.043-44.163zM66 395.306l28.213-31.75c-3.772 9.273-6.245 32.9-7.143 57.094-8.123-7.47-15.21-15.994-21.07-25.345zm164.888-116.74c27.5 40.28 35.594 86.293 7.972 125.566-20.088 28.512-66.162 62.064-109.545 43.4a159.99 159.99 0 0 1-16.62-8.281c-2.486-33-5.42-80.755 5.4-102.565 12.28-24.62 57.566-76.112 69.577-89.588 14.67 2.428 29.55 11.472 43.214 31.467zM375.663 47.044a123.19 123.19 0 0 1 28.153 18.482c-24.3 3.723-48.038 9.057-56.987 13.93zM246 142.174c9.932-26.986 31.55-58.024 62.657-83.16 17.346-13.966 32.428-17.624 42.353-18.087L241.205 161.308c.903-6.533 2.514-12.95 4.805-19.134z" opacity=".15"/><g fill="#381200"><path d="M328.398 33.305L215.883 156.577s-1.3 16.5 1.535 23.982c0 0 54.25-62.2 80.838-79.608 26.622-17.388 100.03-16.635 126.3-18.558 26.25-1.874 35.526-22.788 16.392-26.465-19.5-3.72-100.444 8.072-118.82 18.16l30.856-34.7s-16.8-7.03-24.586-6.084zM28.058 371.1L142.02 239.67s16.22-3.2 24-1.282c0 0-58.413 64.428-72.576 92.905s-4.83 101.306-3.66 127.566c1.182 26.3-18.48 37.98-24.362 19.385-6-18.9-3.723-100.685 4.12-120.073l-32.577 36.657s-8.98-15.893-8.907-23.737z"/><path d="M311.593 20.98c-24.746 14.955-53.378 35.275-77.033 68.77-23.61 33.552-35.482 61.713-31.726 86.19 0 0-9.43-1.785-27.967 17.744 0 0-1.143 1.143-1.624 1.734-.558.564-1.547 1.807-1.547 1.807-17.22 20.706-14.337 29.84-14.337 29.84-24.74-.86-51.33 14.22-81.867 41.61-30.532 27.43-47.33 58.244-59.313 84.54C4.24 379.544 0 395.156 0 395.156L19.5 412.5a122.79 122.79 0 0 1 11.711-3.94c6.4-1.927 32.87 23.94 32.87 23.94 39.09 31.8 87.33 50.952 148.458-13.464 64.965-68.4 11.654-140.4 2.244-152.93-6.763-8.93-20.62-24.62-37.02-33.135h0c-.614-10.633 4.695-18.655 8.374-22.873l3.194-3.588c3.752-4.14 11.07-10.367 21.735-10.99 10.35 15.314 27.585 27.2 37.247 32.888 13.5 7.88 91.26 52.385 151.6-20.073 56.84-68.275 32.19-113.97-3.97-149.053 0 0-28.78-23.244-27.666-29.837 1.57-8.733 2.563-12.1 2.563-12.1L351.36.003s-15.024 6.003-39.766 20.977zM206.2 273.174c27.467 40.265 35.58 86.312 7.96 125.57-20.05 28.5-66.128 62.045-109.52 43.436-43.38-18.632-61.8-47.36-69.577-63.667 0 0-10.97-22.638 10.332-56.526 21.293-33.838 49.6-58.944 75.23-71.92 25.636-13.028 58.106-17.156 85.576 23.11zM410.284 98.467c23.588 40.88-4.366 90.57-30.322 113.813-35.764 32.065-82.435 29.373-125.626 6.794-43.24-22.572-42.9-55.33-32.994-82.28 9.907-27 31.52-58.055 62.66-83.156 31.142-25.082 54.9-16.913 54.9-16.913 17.126 5.86 47.823 20.82 71.39 61.742z"/></g><g fill="#f0eff3"><path d="M35.203 378.67s-10.927-22.657 10.353-56.53c21.3-33.853 49.633-58.94 75.243-71.937 25.648-12.977 58.117-17.137 85.6 23.124 27.47 40.28 35.576 86.3 7.95 125.543-20.1 28.53-66.145 62.045-109.508 43.463-43.377-18.64-61.832-47.398-69.64-63.663z" opacity=".5"/><path d="M93.697 415.684s-53.9-54.4-15.185-112.518c0 0-42.032 37.075-35.072 67.816 6.958 30.785 50.257 44.702 50.257 44.702z"/><path d="M338.894 36.726s-23.748-8.17-54.9 16.913c-31.142 25.1-52.754 56.155-62.66 83.156-9.905 26.952-10.245 59.708 32.994 82.28 43.19 22.58 89.862 25.27 125.626-6.794 25.955-23.244 53.91-72.933 30.322-113.813-23.57-40.923-54.266-55.882-71.39-61.742z" opacity=".5"/><path d="M277.536 208.89s-53.9-54.41-15.183-112.546c0 0-42 37.1-35.06 67.877 6.95 30.752 50.242 44.67 50.242 44.67z"/></g></svg>