<svg xmlns="http://www.w3.org/2000/svg" xmlns:xlink="http://www.w3.org/1999/xlink" viewBox="0 0 1280 1024" xmlns:v="https://vecta.io/nano"><g fill="#efefef"><path d="M16.237 0H0v33.146l16.237-9.374V0zm26.66 37.257l23.358-13.485V0H19.54v23.772l23.358 13.485zm50.02 0l23.357-13.485V0H69.56v23.772l23.358 13.485zm50.018 0l23.358-13.485V0h-46.716v23.772l23.358 13.485zm50.018 0l23.358-13.485V0h-46.715v23.772l23.357 13.485zm50.02 0l23.358-13.485V0h-46.716v23.772l23.358 13.485zm50.028 0l23.358-13.485V0h-46.715v23.772L293 37.257zm50 0l23.358-13.485V0H319.65v23.772l23.358 13.485zM41.247 66.253v-26.97L17.9 25.796 0 36.124V69.4l17.9 10.33 23.358-13.486zm50.018 0v-26.97L67.907 25.796 44.55 39.282v26.97L67.907 79.74l23.358-13.486z"/><use xlink:href="#B"/><use xlink:href="#B" x="50.018"/><use xlink:href="#B" x="100.036"/><path d="M291.34 66.253v-26.97l-23.36-13.487-23.358 13.486v26.97L267.98 79.74l23.358-13.486zm50.018 0v-26.97L318 25.796l-23.358 13.486v26.97L318 79.74l23.358-13.486z"/><use xlink:href="#B" x="250.092"/><path d="M16.237 82.8L0 73.416v45.72l16.237-9.375V82.8zm50.02 26.972V82.8L42.898 69.305 19.54 82.8v26.97l23.358 13.486 23.358-13.486zm3.304 0l23.358 13.486 23.357-13.486V82.8L92.917 69.305 69.56 82.8v26.97zm50.017 0l23.358 13.486 23.358-13.486V82.8l-23.358-13.486L119.577 82.8v26.97zm50.02 0l23.357 13.486 23.358-13.486V82.8l-23.358-13.486L169.596 82.8v26.97zm50.018 0l23.358 13.486 23.358-13.486V82.8l-23.358-13.486L219.614 82.8v26.97zm50.02 0L293 123.248l23.358-13.486V82.8L293 69.305 269.633 82.8v26.97zm50.017 0l23.358 13.486 23.358-13.486V82.8L343 69.305 319.65 82.8v26.97zM41.247 152.244v-26.972L17.9 111.787 0 122.115V155.4l17.9 10.328 23.358-13.485z"/><use xlink:href="#C"/><use xlink:href="#C" x="50.018"/><use xlink:href="#C" x="100.036"/><use xlink:href="#C" x="150.055"/><use xlink:href="#C" x="200.073"/><path d="M294.642 125.272v26.972L318 165.73l23.358-13.485v-26.972L318 111.787l-23.358 13.485z"/><use xlink:href="#C" x="300.11"/><path d="M17.265 168.782L0 158.813v46.908l17.265-9.968v-26.97z"/><use xlink:href="#B" x="-74" y="129.5"/><use xlink:href="#D"/><use xlink:href="#D" x="50.019"/><use xlink:href="#D" x="100.037"/><path d="M220.642 168.782v26.97L244 209.24l23.358-13.486v-26.97L244 155.296l-23.358 13.486z"/><use xlink:href="#D" x="200.074"/><use xlink:href="#D" x="250.094"/><path d="M42.274 238.234v-26.97l-23.357-13.486L0 208.7v32.1l18.917 10.92 23.357-13.486z"/><use xlink:href="#E"/><use xlink:href="#F"/><use xlink:href="#D" x="75.028" y="42.481"/><path d="M195.633 211.263v26.97L219 251.72l23.358-13.486v-26.97L219 197.777l-23.357 13.486z"/><use xlink:href="#D" x="175.064" y="42.481"/><use xlink:href="#G"/><use xlink:href="#D" x="275.102" y="42.481"/><path d="M17.265 254.772L0 244.804v46.908l17.265-9.968v-26.972z"/><use xlink:href="#H"/><use xlink:href="#C" x="26.036" y="129.5"/><use xlink:href="#C" x="76.055" y="129.5"/><use xlink:href="#C" x="126.073" y="129.5"/><path d="M220.642 254.772v26.972L244 295.23l23.358-13.485v-26.972L244 241.287l-23.358 13.485z"/><use xlink:href="#C" x="226.11" y="129.5"/><use xlink:href="#C" x="276.13" y="129.5"/><path d="M42.274 324.225v-26.97l-23.357-13.486L0 294.7v32.1l18.917 10.922 23.357-13.486z"/><use xlink:href="#E" y="85.991"/><use xlink:href="#F" y="85.991"/><use xlink:href="#D" x="75.028" y="128.472"/><path d="M195.633 297.254v26.97L219 337.71l23.358-13.486v-26.97L219 283.768l-23.357 13.486z"/><use xlink:href="#D" x="175.064" y="128.472"/><use xlink:href="#G" y="85.991"/><use xlink:href="#D" x="275.102" y="128.472"/><path d="M393.365 36.506l23.358-13.486V0h-46.715v23.02l23.357 13.486z"/><use xlink:href="#I"/><path d="M493.402 36.506L516.76 23.02V0h-46.716v23.02l23.358 13.486zm50.018 0l23.36-13.486V0h-46.716v23.02l23.358 13.486zm50.02 0l23.358-13.486V0H570.08v23.02l23.358 13.486zm50.018 0l23.358-13.486V0H620.1v23.02l23.358 13.486z"/><use xlink:href="#I" x="250.092"/><use xlink:href="#I" x="300.111"/><use xlink:href="#J"/><use xlink:href="#J" x="50.017"/><path d="M541.77 65.502V38.53l-23.357-13.485-23.358 13.485v26.972l23.358 13.485 23.357-13.485zm50.018 0V38.53L568.43 25.045 545.072 38.53v26.972l23.358 13.485 23.358-13.485zm50.018 0V38.53L618.45 25.045 595.1 38.53v26.972l23.358 13.485 23.357-13.485zm50.02 0V38.53l-23.358-13.485L645.1 38.53v26.972l23.358 13.485 23.358-13.485zm50.018 0V38.53l-23.358-13.485-23.357 13.485v26.972l23.357 13.485 23.358-13.485z"/><use xlink:href="#J" x="350.129"/><path d="M370.008 109.01l23.357 13.486 23.358-13.486V82.04l-23.358-13.486-23.357 13.486v26.97z"/><use xlink:href="#K"/><use xlink:href="#K" x="50.018"/><path d="M520.063 109l23.358 13.486L566.78 109V82.04l-23.36-13.486-23.357 13.486V109zm50.017 0l23.358 13.486L616.796 109V82.04L593.44 68.554 570.08 82.04V109zm50.02 0l23.358 13.486L666.816 109V82.04l-23.358-13.486L620.1 82.04V109z"/><use xlink:href="#K" x="250.092"/><use xlink:href="#K" x="300.111"/><use xlink:href="#D" x="324.431" y="-44.262"/><use xlink:href="#D" x="374.449" y="-44.262"/><use xlink:href="#F" x="399.458" y="-86.743"/><use xlink:href="#D" x="474.486" y="-44.262"/><use xlink:href="#F" x="499.494" y="-86.743"/><use xlink:href="#D" x="574.524" y="-44.262"/><use xlink:href="#G" x="399.458" y="-86.743"/><use xlink:href="#D" x="674.56" y="-44.262"/><use xlink:href="#L"/><use xlink:href="#L" x="50.019"/><use xlink:href="#L" x="100.037"/><use xlink:href="#L" x="150.055"/><use xlink:href="#L" x="200.075"/><path d="M621.128 168.03v26.972l23.358 13.485 23.357-13.485V168.03l-23.357-13.486-23.358 13.486z"/><use xlink:href="#L" x="300.111"/><path d="M721.165 168.03v26.972l23.358 13.485 23.357-13.485V168.03l-23.357-13.486-23.358 13.486z"/><use xlink:href="#D" x="325.458" y="41.73"/><use xlink:href="#D" x="375.477" y="41.73"/><use xlink:href="#D" x="425.494" y="41.73"/><use xlink:href="#D" x="475.514" y="41.73"/><use xlink:href="#D" x="525.532" y="41.73"/><use xlink:href="#D" x="575.551" y="41.73"/><use xlink:href="#D" x="625.569" y="41.73"/><use xlink:href="#D" x="675.588" y="41.73"/><use xlink:href="#D" x="300.449" y="85.238"/><use xlink:href="#D" x="350.468" y="85.238"/><use xlink:href="#D" x="400.486" y="85.238"/><use xlink:href="#D" x="450.504" y="85.238"/><use xlink:href="#D" x="500.524" y="85.238"/><use xlink:href="#F" x="525.532" y="42.757"/><use xlink:href="#D" x="600.56" y="85.238"/><use xlink:href="#F" x="625.569" y="42.757"/><use xlink:href="#C" x="351.494" y="171.23"/><use xlink:href="#C" x="401.513" y="171.23"/><use xlink:href="#C" x="451.53" y="171.23"/><use xlink:href="#C" x="501.55" y="171.23"/><use xlink:href="#C" x="551.568" y="171.23"/><use xlink:href="#C" x="601.587" y="171.23"/><use xlink:href="#C" x="651.605" y="171.23"/><use xlink:href="#C" x="701.624" y="171.23"/><path d="M17.74 339.43L0 329.187v47.456L17.74 366.4v-26.97zm50.02 26.97v-26.97L44.4 325.944 21.043 339.43v26.97L44.4 379.887 67.76 366.4zm3.3 0l23.358 13.486 23.358-13.486v-26.97L94.42 325.944 71.06 339.43v26.97z"/><use xlink:href="#D" x="50.494" y="170.648"/><use xlink:href="#D" x="100.512" y="170.648"/><use xlink:href="#D" x="150.531" y="170.648"/><path d="M271.135 339.43v26.97l23.358 13.486L317.85 366.4v-26.97l-23.358-13.486-23.358 13.486zm50.02 0v26.97l23.358 13.486L367.87 366.4v-26.97l-23.358-13.486-23.358 13.486zM42.75 408.883V381.9l-23.357-13.485L0 379.62v31.552l19.392 11.195 23.357-13.485zm3.302 0L69.4 422.368l23.358-13.485V381.9L69.4 368.426 46.052 381.9v26.972zm50.018 0l23.358 13.485 23.357-13.485V381.9l-23.357-13.485L96.07 381.9v26.972z"/><use xlink:href="#M"/><path d="M196.108 381.91v26.972l23.357 13.485 23.358-13.485V381.91l-23.358-13.485-23.357 13.485z"/><use xlink:href="#M" x="100.036"/><path d="M296.145 381.91v26.972l23.357 13.485 23.358-13.485V381.91l-23.358-13.485-23.357 13.485z"/><use xlink:href="#M" x="200.073"/><path d="M17.74 425.42L0 415.178v47.456l17.74-10.242V425.42zm50.02 26.972V425.42L44.4 411.935 21.043 425.42v26.972L44.4 465.878l23.358-13.486zm3.3 0l23.358 13.486 23.358-13.486V425.42L94.42 411.935 71.06 425.42v26.972z"/><use xlink:href="#N"/><use xlink:href="#N" x="50.018"/><use xlink:href="#N" x="100.037"/><use xlink:href="#N" x="150.055"/><use xlink:href="#N" x="200.074"/><path d="M42.75 494.873v-26.97l-23.357-13.486L0 465.612v31.55l19.392 11.196 23.357-13.486zm3.302 0L69.4 508.36l23.358-13.486v-26.97L69.4 454.416l-23.358 13.486v26.97zm50.018 0l23.358 13.486 23.357-13.486v-26.97l-23.357-13.486-23.358 13.486v26.97z"/><use xlink:href="#O"/><use xlink:href="#P"/><use xlink:href="#B" x="151.558" y="428.62"/><use xlink:href="#P" x="100.037"/><use xlink:href="#B" x="251.596" y="428.62"/><path d="M18.768 511.4L0 500.575v48.643l18.768-10.835V511.4zm50.018 26.973V511.4L45.43 497.925 22.07 511.4v26.972l23.358 13.485 23.357-13.485zm3.304 0l23.358 13.485 23.358-13.485V511.4l-23.358-13.486L72.1 511.4v26.972zm50.018 0l23.358 13.485 23.357-13.485V511.4l-23.357-13.486-23.358 13.486v26.972zm96.734 0V511.4l-23.358-13.486-23.358 13.486v26.972l23.358 13.485 23.358-13.485zm50.018 0V511.4l-23.357-13.486-23.358 13.486v26.972l23.358 13.485 23.357-13.485zm50.02 0V511.4l-23.358-13.486-23.358 13.486v26.972l23.358 13.485 23.358-13.485zm50.017 0V511.4l-23.358-13.486-23.357 13.486v26.972l23.357 13.485 23.358-13.485zm-325.12 42.48v-26.97L20.42 540.407 0 552.196v30.365l20.42 11.8 23.358-13.486z"/><use xlink:href="#E" x="1.503" y="342.63"/><use xlink:href="#E" x="51.521" y="342.63"/><use xlink:href="#E" x="101.54" y="342.63"/><use xlink:href="#B" x="102.566" y="514.611"/><use xlink:href="#B" x="152.586" y="514.611"/><use xlink:href="#B" x="202.604" y="514.611"/><use xlink:href="#B" x="252.623" y="514.611"/><path d="M18.768 597.402L0 586.566v48.643l18.768-10.836v-26.97zm50.018 26.97v-26.97L45.43 583.916l-23.36 13.486v26.97l23.36 13.488 23.357-13.486z"/><use xlink:href="#E" x="26.513" y="386.139"/><path d="M122.108 624.373l23.358 13.486 23.357-13.486v-26.97l-23.357-13.486-23.358 13.486v26.97z"/><use xlink:href="#B" x="77.558" y="558.12"/><use xlink:href="#Q"/><use xlink:href="#B" x="177.596" y="558.12"/><use xlink:href="#P" x="126.074" y="129.5"/><path d="M43.777 666.855v-26.972L20.42 626.398 0 638.187v30.364l20.42 11.79 23.358-13.485z"/><use xlink:href="#R"/><use xlink:href="#R" x="50.018"/><use xlink:href="#H" x="126.549" y="385.111"/><use xlink:href="#H" x="176.566" y="385.111"/><use xlink:href="#H" x="226.586" y="385.111"/><use xlink:href="#H" x="276.604" y="385.111"/><use xlink:href="#H" x="326.623" y="385.111"/><use xlink:href="#C" x="326.95" y="213.406"/><use xlink:href="#C" x="376.98" y="213.406"/><use xlink:href="#C" x="426.997" y="213.406"/><path d="M521.566 338.678v26.972l23.358 13.485 23.357-13.485v-26.972l-23.357-13.485-23.358 13.485zm50.018 0v26.972l23.358 13.485L618.3 365.65v-26.972l-23.358-13.485-23.358 13.485zm50.02 0v26.972l23.358 13.485 23.357-13.485v-26.972l-23.357-13.485-23.358 13.485z"/><use xlink:href="#C" x="627.07" y="213.406"/><path d="M721.64 338.678v26.972l23.357 13.485 23.358-13.485v-26.972l-23.358-13.485-23.357 13.485z"/><use xlink:href="#G" x="100.85" y="169.897"/><use xlink:href="#D" x="375.952" y="212.378"/><use xlink:href="#D" x="425.97" y="212.378"/><use xlink:href="#D" x="475.989" y="212.378"/><use xlink:href="#D" x="526.007" y="212.378"/><use xlink:href="#D" x="576.026" y="212.378"/><use xlink:href="#D" x="626.044" y="212.378"/><use xlink:href="#D" x="676.064" y="212.378"/><path d="M371.5 424.67v26.97l23.358 13.486 23.358-13.486v-26.97l-23.358-13.486L371.5 424.67z"/><use xlink:href="#D" x="350.944" y="255.888"/><use xlink:href="#D" x="400.961" y="255.888"/><use xlink:href="#F" x="425.97" y="213.407"/><path d="M571.584 424.67v26.97l23.358 13.486L618.3 451.64v-26.97l-23.358-13.486-23.358 13.486z"/><use xlink:href="#F" x="526.007" y="213.407"/><use xlink:href="#D" x="601.034" y="255.888"/><use xlink:href="#G" x="425.97" y="213.407"/><use xlink:href="#P" x="200.412" y="-0.751"/><use xlink:href="#B" x="351.97" y="427.869"/><use xlink:href="#B" x="401.988" y="427.869"/><use xlink:href="#B" x="452.006" y="427.869"/><use xlink:href="#B" x="502.026" y="427.869"/><use xlink:href="#B" x="552.044" y="427.869"/><use xlink:href="#B" x="602.062" y="427.869"/><use xlink:href="#B" x="652.081" y="427.869"/><use xlink:href="#B" x="277.97" y="471.377"/><use xlink:href="#P" x="226.449" y="42.757"/><use xlink:href="#B" x="378.006" y="471.377"/><use xlink:href="#B" x="428.026" y="471.377"/><use xlink:href="#B" x="478.044" y="471.377"/><use xlink:href="#B" x="528.062" y="471.377"/><use xlink:href="#B" x="578.081" y="471.377"/><use xlink:href="#B" x="628.099" y="471.377"/><use xlink:href="#S"/><use xlink:href="#S" x="50.019"/><use xlink:href="#S" x="100.037"/><path d="M594.318 580.113V553.14l-23.357-13.485-23.358 13.485v26.972l23.358 13.485 23.357-13.485z"/><use xlink:href="#S" x="200.074"/><path d="M694.355 580.113V553.14l-23.357-13.485-23.358 13.485v26.972l23.358 13.485 23.357-13.485z"/><use xlink:href="#S" x="300.111"/><path d="M794.392 580.113V553.14l-23.358-13.485-23.357 13.485v26.972l23.357 13.485 23.358-13.485z"/><use xlink:href="#T"/><path d="M469.272 623.622V596.65l-23.358-13.485-23.357 13.485v26.972l23.357 13.485 23.358-13.485z"/><use xlink:href="#T" x="100.036"/><use xlink:href="#T" x="150.056"/><use xlink:href="#T" x="200.074"/><use xlink:href="#T" x="250.092"/><use xlink:href="#T" x="300.111"/><use xlink:href="#T" x="350.129"/><use xlink:href="#B" x="302.979" y="599.85"/><use xlink:href="#B" x="352.998" y="599.85"/><use xlink:href="#B" x="403.016" y="599.85"/><use xlink:href="#Q" x="325.458" y="41.73"/><use xlink:href="#B" x="503.053" y="599.85"/><use xlink:href="#Q" x="425.495" y="41.73"/><use xlink:href="#B" x="603.09" y="599.85"/><use xlink:href="#P" x="551.569" y="171.23"/><path d="M792.88 36.257l23.357-13.485V0h-46.715v22.772l23.358 13.485zm50.018 0l23.358-13.485V0H819.54v22.772l23.358 13.485zm50.02 0l23.357-13.485V0H869.56v22.772l23.358 13.485z"/><use xlink:href="#U"/><path d="M992.953 36.257l23.358-13.485V0h-46.715v22.772l23.357 13.485z"/><use xlink:href="#U" x="100.037"/><path d="M1093 36.257l23.358-13.485V0h-46.715v22.772L1093 36.257z"/><use xlink:href="#U" x="200.075"/><path d="M841.247 65.253v-26.97L817.89 24.796 794.53 38.282v26.97L817.89 78.74l23.358-13.486z"/><use xlink:href="#B" x="749.981" y="-1"/><use xlink:href="#B" x="800" y="-1"/><use xlink:href="#B" x="850.018" y="-1"/><use xlink:href="#B" x="900.036" y="-1"/><use xlink:href="#B" x="950.056" y="-1"/><path d="M1141.358 65.253v-26.97L1118 24.796l-23.358 13.486v26.97L1118 78.74l23.358-13.486z"/><use xlink:href="#B" x="1050.092" y="-1"/><path d="M769.522 108.762l23.358 13.486 23.357-13.486V81.8L792.88 68.305 769.522 81.8v26.97zm50.018 0l23.358 13.486 23.358-13.486V81.8l-23.358-13.486L819.54 81.8v26.97zm50.02 0l23.358 13.486 23.357-13.486V81.8l-23.357-13.486L869.56 81.8v26.97z"/><use xlink:href="#V"/><path d="M969.596 108.762l23.357 13.486 23.358-13.486V81.79l-23.358-13.486-23.357 13.486v26.97z"/><use xlink:href="#V" x="100.037"/><path d="M1069.633 108.762L1093 122.248l23.358-13.486V81.79L1093 68.305l-23.357 13.486v26.97z"/><use xlink:href="#V" x="200.073"/><use xlink:href="#C" x="749.98" y="-1"/><use xlink:href="#C" x="800" y="-1"/><use xlink:href="#C" x="850.018" y="-1"/><use xlink:href="#C" x="900.036" y="-1"/><use xlink:href="#C" x="950.055" y="-1"/><use xlink:href="#C" x="1000.073" y="-1"/><path d="M1094.642 124.272v26.972L1118 164.73l23.358-13.485v-26.972L1118 110.787l-23.358 13.485z"/><use xlink:href="#C" x="1100.11" y="-1"/><use xlink:href="#D" x="699.964" y="-1"/><use xlink:href="#D" x="749.982" y="-1"/><use xlink:href="#D" x="800" y="-1"/><use xlink:href="#D" x="850.019" y="-1"/><use xlink:href="#D" x="900.037" y="-1"/><path d="M1020.642 167.782v26.97L1044 208.24l23.358-13.486v-26.97L1044 154.296l-23.358 13.486z"/><use xlink:href="#D" x="1000.074" y="-1"/><use xlink:href="#D" x="1050.094" y="-1"/><use xlink:href="#F" x="699.964" y="-1"/><use xlink:href="#D" x="774.991" y="41.481"/><use xlink:href="#F" x="800" y="-1"/><use xlink:href="#D" x="875.028" y="41.481"/><path d="M995.633 210.263v26.97L1019 250.72l23.358-13.486v-26.97L1019 196.777l-23.357 13.486z"/><use xlink:href="#D" x="975.064" y="41.481"/><use xlink:href="#G" x="800" y="-1"/><use xlink:href="#D" x="1075.102" y="41.481"/><use xlink:href="#C" x="726" y="128.5"/><use xlink:href="#C" x="776.018" y="128.5"/><use xlink:href="#C" x="826.036" y="128.5"/><use xlink:href="#C" x="876.055" y="128.5"/><use xlink:href="#C" x="926.073" y="128.5"/><path d="M1020.642 253.772v26.972L1044 294.23l23.358-13.485v-26.972L1044 240.287l-23.358 13.485z"/><use xlink:href="#C" x="1026.11" y="128.5"/><use xlink:href="#C" x="1076.13" y="128.5"/><use xlink:href="#F" x="699.964" y="84.991"/><use xlink:href="#D" x="774.991" y="127.472"/><use xlink:href="#F" x="800" y="84.991"/><use xlink:href="#D" x="875.028" y="127.472"/><path d="M995.633 296.254v26.97L1019 336.71l23.358-13.486v-26.97L1019 282.768l-23.357 13.486z"/><use xlink:href="#D" x="975.064" y="127.472"/><use xlink:href="#G" x="800" y="84.991"/><use xlink:href="#O" x="999.599" y="-171.648"/><path d="M1193.365 35.506l23.358-13.486V0h-46.715v22.02l23.357 13.486zm50.02 0l23.358-13.486V0h-46.716v22.02l23.358 13.486zM1280 27.768V0h-9.956v22.02l9.956 5.748zm-38.267 36.734V37.53l-23.358-13.485-23.358 13.485v26.972l23.358 13.485 23.358-13.485zm3.302-26.972v26.972l23.358 13.485 11.607-6.7v-40.54l-11.607-6.7-23.358 13.485zM1170.008 108l23.357 13.486L1216.723 108V81.04l-23.358-13.486-23.357 13.486V108zm50.018 0l23.358 13.486L1266.742 108V81.04l-23.358-13.486-23.358 13.486V108zm50.018 0l9.956 5.748V75.292l-9.956 5.748V108z"/><use xlink:href="#O" x="1048.928" y="-344.382"/><path d="M1245.035 123.52v26.97l23.358 13.486 11.607-6.7v-40.54l-11.607-6.702-23.358 13.486zm-74 43.5v26.972l23.358 13.485 23.358-13.485V167.03l-23.358-13.486-23.358 13.486zm50.02 0v26.972l23.358 13.485 23.358-13.485V167.03l-23.358-13.486-23.358 13.486zm50.018 26.972l8.928 5.154v-37.28l-8.928 5.154v26.972z"/><use xlink:href="#O" x="1049.955" y="-258.39"/><path d="M1246.063 209.512v26.97l23.358 13.486 10.58-6.108v-41.727l-10.58-6.108-23.358 13.486z"/><use xlink:href="#O" x="1024.945" y="-214.882"/><use xlink:href="#D" x="1150.468" y="84.238"/><path d="M1271.072 279.992l8.928 5.155v-37.28l-8.928 5.155v26.97z"/><use xlink:href="#W"/><path d="M1246.063 295.502v26.972l23.358 13.485 10.58-6.107v-41.728l-10.58-6.107-23.358 13.485zm-475.04 42.928v26.97l23.358 13.486L817.74 365.4v-26.97l-23.358-13.486-23.358 13.486zm50.02 0v26.97l23.358 13.486 23.36-13.486v-26.97l-23.36-13.486-23.358 13.486z"/><use xlink:href="#D" x="800.474" y="169.648"/><use xlink:href="#D" x="850.494" y="169.648"/><use xlink:href="#D" x="900.512" y="169.648"/><use xlink:href="#D" x="950.531" y="169.648"/><use xlink:href="#D" x="1000.549" y="169.648"/><use xlink:href="#D" x="1050.568" y="169.648"/><path d="M796.034 380.9v26.972l23.358 13.485 23.357-13.485V380.9l-23.357-13.485-23.358 13.485zm50.018 0v26.972l23.358 13.485 23.358-13.485V380.9L869.4 367.426l-23.358 13.485zm50.018 0v26.972l23.358 13.485 23.357-13.485V380.9l-23.357-13.485L896.07 380.9zm50.02 0v26.972l23.358 13.485 23.358-13.485V380.9l-23.358-13.485L946.1 380.9zm50.018 0v26.972l23.357 13.485 23.358-13.485V380.9l-23.358-13.485-23.357 13.485zm50.018 0v26.972l23.358 13.485 23.358-13.485V380.9l-23.358-13.485-23.358 13.485zm50.02 0v26.972l23.357 13.485 23.358-13.485V380.9l-23.358-13.485-23.357 13.485zm96.735 0l-23.358-13.485-23.358 13.485v26.972l23.358 13.485 23.358-13.485V380.9z"/><use xlink:href="#X"/><path d="M821.043 424.42v26.972l23.358 13.486 23.358-13.486V424.42L844.4 410.935l-23.358 13.485z"/><use xlink:href="#X" x="100.036"/><use xlink:href="#X" x="150.056"/><use xlink:href="#X" x="200.074"/><use xlink:href="#X" x="250.093"/><use xlink:href="#X" x="300.111"/><path d="M1167.87 424.42l-23.358-13.485-23.358 13.485v26.972l23.358 13.486 23.358-13.486V424.42z"/><use xlink:href="#Q" x="573.89" y="-130.5"/><path d="M892.768 493.873v-26.97L869.4 453.416l-23.358 13.486v26.97L869.4 507.36l23.358-13.486z"/><use xlink:href="#Q" x="673.926" y="-130.5"/><use xlink:href="#B" x="851.521" y="427.62"/><use xlink:href="#P" x="800" y="-1"/><use xlink:href="#B" x="951.558" y="427.62"/><use xlink:href="#P" x="900.037" y="-1"/><use xlink:href="#O" x="1000.075" y="-1"/><path d="M818.768 537.383V510.4L795.4 496.925l-23.358 13.486v26.972l23.358 13.485 23.358-13.485zm50.018 0V510.4l-23.357-13.486L822.07 510.4v26.972l23.358 13.485 23.357-13.485z"/><use xlink:href="#Y"/><path d="M968.823 537.383V510.41l-23.357-13.486-23.358 13.486v26.972l23.358 13.485 23.357-13.485z"/><use xlink:href="#Y" x="100.037"/><path d="M1068.86 537.383V510.41l-23.358-13.486-23.357 13.486v26.972l23.357 13.485 23.358-13.485z"/><use xlink:href="#Y" x="200.075"/><path d="M1168.897 537.383V510.41l-23.358-13.486-23.357 13.486v26.972l23.357 13.485 23.358-13.485z"/><use xlink:href="#B" x="702.493" y="513.611"/><use xlink:href="#B" x="752.512" y="513.611"/><use xlink:href="#B" x="802.53" y="513.611"/><use xlink:href="#B" x="852.549" y="513.611"/><use xlink:href="#B" x="902.566" y="513.611"/><use xlink:href="#B" x="952.586" y="513.611"/><use xlink:href="#B" x="1002.604" y="513.611"/><use xlink:href="#Z"/><path d="M818.768 623.373v-26.97L795.4 582.916l-23.358 13.486v26.97L795.4 636.86l23.358-13.486z"/><use xlink:href="#Q" x="599.926" y="-1"/><use xlink:href="#B" x="777.521" y="557.12"/><use xlink:href="#Q" x="699.963" y="-1"/><use xlink:href="#B" x="877.558" y="557.12"/><use xlink:href="#P" x="826.037" y="128.5"/><use xlink:href="#B" x="977.596" y="557.12"/><use xlink:href="#P" x="926.074" y="128.5"/><use xlink:href="#H" x="776.493" y="384.111"/><use xlink:href="#H" x="826.512" y="384.111"/><use xlink:href="#H" x="876.53" y="384.111"/><use xlink:href="#H" x="926.549" y="384.111"/><use xlink:href="#H" x="976.566" y="384.111"/><use xlink:href="#H" x="1026.586" y="384.111"/><use xlink:href="#H" x="1076.604" y="384.111"/><path d="M1193.906 665.855v-26.972l-23.357-13.485-23.358 13.485v26.972l23.358 13.485 23.357-13.485z"/><use xlink:href="#W" x="-24.534" y="42.176"/><use xlink:href="#C" x="1176.98" y="212.406"/><path d="M1271.547 364.65l8.453 4.88v-36.732l-8.453 4.88v26.972zm-28.312 15.5l-23.358-13.486-23.357 13.486v26.97l23.357 13.486 23.358-13.486v-26.97zm3.303 0v26.97l23.358 13.486 10.104-5.834v-42.275l-10.104-5.834-23.358 13.486z"/><use xlink:href="#O" x="1025.421" y="-44.232"/><use xlink:href="#D" x="1150.944" y="254.888"/><path d="M1271.547 450.64l8.453 4.88V418.8l-8.453 4.88v26.97zm-28.312 15.5l-23.358-13.486-23.357 13.486v26.97l23.357 13.486 23.358-13.486v-26.97zm3.303 0v26.97l23.358 13.486 10.104-5.834v-42.276l-10.104-5.833-23.358 13.486z"/><use xlink:href="#O" x="1026.449" y="41.758"/><use xlink:href="#G" x="926.887" y="298.397"/><path d="M1272.575 536.63l7.425 4.287v-35.545l-7.425 4.287v26.97zm-28.312 15.5l-23.358-13.485-23.358 13.485v26.972l23.358 13.485 23.358-13.485V552.14zm3.303 0v26.972l23.358 13.485 9.076-5.24v-43.462l-9.076-5.24-23.358 13.485zm-28.312 43.5l-23.358-13.485-23.358 13.485v26.972l23.358 13.485 23.358-13.485V595.65zm3.303 0v26.972l23.357 13.485 23.358-13.485V595.65l-23.358-13.485-23.357 13.485zm50.018 26.972l7.425 4.287v-35.545l-7.425 4.286v26.972z"/><use xlink:href="#O" x="1051.458" y="170.23"/><path d="M1247.566 638.132v26.97l23.358 13.486 9.076-5.24v-43.463l-9.076-5.24-23.358 13.486zM18.237 681.8L0 671.27v48.03l18.237-10.53V681.8zm50.02 26.972V681.8l-23.358-13.485L21.54 681.8v26.972l23.358 13.485 23.358-13.485zm3.304 0l23.358 13.485 23.357-13.485V681.8l-23.357-13.485L71.56 681.8v26.972zm96.733 0V681.8l-23.358-13.485-23.358 13.485v26.972l23.358 13.485 23.358-13.485zm50.017 0V681.8l-23.358-13.485-23.357 13.485v26.972l23.357 13.485 23.358-13.485zm50.02 0V681.8l-23.358-13.485-23.358 13.485v26.972l23.358 13.485 23.358-13.485zm50.018 0V681.8L295 668.315 271.633 681.8v26.972L295 722.257l23.358-13.485zm50.02 0V681.8l-23.358-13.485-23.36 13.485v26.972l23.358 13.485 23.358-13.485zm-325.12 42.48v-26.97L19.9 710.796 0 722.28v30.977l19.9 11.483 23.358-13.486z"/><use xlink:href="#E" x="0.973" y="513.019"/><use xlink:href="#E" x="50.991" y="513.019"/><use xlink:href="#B" x="52.018" y="685"/><use xlink:href="#B" x="102.036" y="685"/><use xlink:href="#B" x="152.056" y="685"/><path d="M343.358 751.253v-26.97L320 710.796l-23.358 13.486v26.97L320 764.74l23.358-13.486z"/><use xlink:href="#B" x="252.092" y="685"/><path d="M18.237 767.8L0 757.262v48.03l18.237-10.53v-26.97zm50.02 26.972v-26.97l-23.358-13.486L21.54 767.8v26.97l23.358 13.486 23.358-13.486zm3.304 0l23.358 13.486 23.357-13.486v-26.97l-23.357-13.486L71.56 767.8v26.97z"/><use xlink:href="#B" x="27.009" y="728.509"/><use xlink:href="#P" x="-24.513" y="299.889"/><use xlink:href="#B" x="127.046" y="728.509"/><path d="M318.348 794.762v-26.97L295 754.305l-23.357 13.486v26.97L295 808.248l23.358-13.486z"/><use xlink:href="#B" x="227.083" y="728.509"/><path d="M43.247 837.244v-26.972L19.89 796.787 0 808.27v30.978l19.89 11.482 23.358-13.485z"/><use xlink:href="#R" x="-0.53" y="170.389"/><use xlink:href="#H" x="76" y="555.5"/><use xlink:href="#H" x="126.018" y="555.5"/><use xlink:href="#H" x="176.036" y="555.5"/><use xlink:href="#H" x="226.056" y="555.5"/><path d="M343.358 837.244v-26.972L320 796.787l-23.358 13.485v26.972L320 850.73l23.358-13.485z"/><use xlink:href="#H" x="326.092" y="555.5"/><path d="M19.265 853.782L0 842.66v49.217l19.265-11.123v-26.97z"/><use xlink:href="#B" x="-72" y="814.5"/><use xlink:href="#B" x="-21.982" y="814.5"/><use xlink:href="#B" x="28.036" y="814.5"/><use xlink:href="#B" x="78.056" y="814.5"/><path d="M269.358 880.753v-26.97L246 840.296l-23.358 13.486v26.97L246 894.24l23.358-13.486z"/><use xlink:href="#B" x="178.092" y="814.5"/><use xlink:href="#B" x="228.111" y="814.5"/><path d="M44.274 923.234v-26.97l-23.357-13.486L0 894.854v29.8l20.917 12.076 23.357-13.486z"/><use xlink:href="#E" x="2" y="685"/><use xlink:href="#Q" x="-124.55" y="298.861"/><use xlink:href="#B" x="53.046" y="856.981"/><path d="M244.348 923.234v-26.97L221 882.777l-23.357 13.486v26.97L221 936.72l23.358-13.486z"/><use xlink:href="#B" x="153.083" y="856.981"/><use xlink:href="#P" x="101.562" y="428.361"/><use xlink:href="#B" x="253.12" y="856.981"/><path d="M19.265 939.772L0 928.65v49.217l19.265-11.122v-26.972z"/><use xlink:href="#W" x="-1173.476" y="644.27"/><use xlink:href="#W" x="-1123.458" y="644.27"/><use xlink:href="#W" x="-1073.44" y="644.27"/><use xlink:href="#W" x="-1023.42" y="644.27"/><path d="M269.358 939.772L246 926.287l-23.358 13.485v26.972L246 980.23l23.358-13.485v-26.972z"/><use xlink:href="#W" x="-923.384" y="644.27"/><use xlink:href="#W" x="-873.365" y="644.27"/><path d="M44.274 1009.225v-26.97l-23.357-13.486L0 980.844v29.79l20.917 12.076 23.357-13.486z"/><use xlink:href="#D" x="-23.009" y="813.472"/><use xlink:href="#F" x="2" y="770.991"/><use xlink:href="#D" x="77.028" y="813.472"/><path d="M197.633 982.254v26.97L221 1022.71l23.358-13.486v-26.97L221 968.768l-23.357 13.486z"/><use xlink:href="#D" x="177.064" y="813.472"/><use xlink:href="#G" x="2" y="770.991"/><use xlink:href="#D" x="277.102" y="813.472"/><use xlink:href="#P" x="175.9" y="213.147"/><use xlink:href="#B" x="327.458" y="641.767"/><use xlink:href="#B" x="377.476" y="641.767"/><use xlink:href="#B" x="427.496" y="641.767"/><use xlink:href="#B" x="477.513" y="641.767"/><path d="M668.816 708.02v-26.97l-23.358-13.486L622.1 681.05v26.97l23.358 13.486 23.358-13.486z"/><use xlink:href="#B" x="577.55" y="641.767"/><use xlink:href="#B" x="627.569" y="641.767"/><use xlink:href="#a"/><use xlink:href="#a" x="50.017"/><path d="M543.77 750.502V723.53l-23.357-13.485-23.358 13.485v26.972l23.358 13.485 23.357-13.485z"/><use xlink:href="#a" x="150.055"/><path d="M643.806 750.502V723.53l-23.357-13.485-23.358 13.485v26.972l23.358 13.485 23.357-13.485z"/><use xlink:href="#a" x="250.092"/><path d="M743.843 750.502V723.53l-23.358-13.485-23.357 13.485v26.972l23.357 13.485 23.358-13.485z"/><use xlink:href="#a" x="350.129"/><use xlink:href="#P" x="175.9" y="299.137"/><use xlink:href="#B" x="327.458" y="727.757"/><use xlink:href="#B" x="377.476" y="727.757"/><use xlink:href="#B" x="427.496" y="727.757"/><use xlink:href="#B" x="477.513" y="727.757"/><path d="M668.816 794.01v-26.97l-23.358-13.486L622.1 767.04v26.97l23.358 13.486 23.358-13.486z"/><use xlink:href="#B" x="577.55" y="727.757"/><use xlink:href="#B" x="627.569" y="727.757"/><use xlink:href="#B" x="302.449" y="770.239"/><use xlink:href="#B" x="352.466" y="770.239"/><use xlink:href="#Q" x="274.91" y="212.119"/><use xlink:href="#B" x="452.504" y="770.239"/><use xlink:href="#Q" x="374.946" y="212.119"/><use xlink:href="#B" x="552.541" y="770.239"/><use xlink:href="#P" x="501.02" y="341.619"/><use xlink:href="#B" x="652.578" y="770.239"/><use xlink:href="#b"/><use xlink:href="#b" x="50.02"/><use xlink:href="#b" x="100.038"/><use xlink:href="#b" x="150.057"/><use xlink:href="#b" x="200.075"/><path d="M669.843 880.002V853.03l-23.357-13.486-23.358 13.486v26.972l23.358 13.485 23.357-13.485z"/><use xlink:href="#b" x="300.112"/><path d="M769.88 880.002V853.03l-23.357-13.486-23.358 13.486v26.972l23.358 13.485 23.357-13.485z"/><use xlink:href="#B" x="303.476" y="856.23"/><use xlink:href="#B" x="353.496" y="856.23"/><use xlink:href="#B" x="403.513" y="856.23"/><use xlink:href="#B" x="453.532" y="856.23"/><use xlink:href="#B" x="503.55" y="856.23"/><use xlink:href="#B" x="553.569" y="856.23"/><use xlink:href="#B" x="603.586" y="856.23"/><use xlink:href="#B" x="653.616" y="856.23"/><use xlink:href="#O" x="226.945" y="471.118"/><use xlink:href="#O" x="276.965" y="471.118"/><use xlink:href="#O" x="326.983" y="471.118"/><use xlink:href="#O" x="377.002" y="471.118"/><use xlink:href="#O" x="427.02" y="471.118"/><use xlink:href="#Z" x="-524.063" y="386.127"/><use xlink:href="#O" x="527.057" y="471.118"/><use xlink:href="#Z" x="-424.026" y="386.127"/><use xlink:href="#C" x="353.494" y="856.23"/><use xlink:href="#C" x="403.513" y="856.23"/><use xlink:href="#C" x="453.53" y="856.23"/><use xlink:href="#C" x="503.55" y="856.23"/><use xlink:href="#C" x="553.568" y="856.23"/><use xlink:href="#C" x="603.587" y="856.23"/><use xlink:href="#C" x="653.605" y="856.23"/><use xlink:href="#C" x="703.624" y="856.23"/><path d="M0 1024h18.996L0 1013.033V1024zm23.787 0h45.227L46.4 1010.944 23.787 1024zm50.02 0h45.227l-22.614-13.056L73.806 1024zm50.018 0h45.227l-22.613-13.056L123.824 1024zm50.02 0h45.227l-22.614-13.056L173.843 1024zm50.017 0h45.227l-22.613-13.056L223.86 1024zm50.02 0h45.227l-22.614-13.056L273.88 1024zm50.018 0h45.227l-22.613-13.056L323.898 1024z"/><use xlink:href="#c"/><use xlink:href="#c" x="50.019"/><use xlink:href="#c" x="100.037"/><path d="M546.924 1010.193l-23.358 13.485v.322h46.715v-.322l-23.357-13.485zm50.018 0l-23.358 13.485v.322H620.3v-.322l-23.358-13.485zm50.018 0l-23.358 13.485v.322h46.715v-.322l-23.357-13.485z"/><use xlink:href="#c" x="300.112"/><path d="M746.997 1010.193l-23.357 13.485v.322h46.715v-.322l-23.358-13.485zm71.24-302.42V680.8l-23.357-13.485-23.358 13.485v26.972l23.358 13.485 23.357-13.485zm50.02 0V680.8l-23.358-13.485L821.54 680.8v26.972l23.358 13.485 23.358-13.485zm50.018 0V680.8l-23.357-13.485L871.56 680.8v26.972l23.358 13.485 23.357-13.485z"/><use xlink:href="#d"/><path d="M1018.31 707.772V680.8l-23.358-13.485-23.357 13.485v26.972l23.357 13.485 23.358-13.485z"/><use xlink:href="#d" x="100.037"/><path d="M1118.348 707.772V680.8L1095 667.315l-23.357 13.485v26.972L1095 721.257l23.358-13.485z"/><use xlink:href="#d" x="200.074"/><use xlink:href="#B" x="701.963" y="684"/><use xlink:href="#B" x="751.981" y="684"/><use xlink:href="#B" x="802" y="684"/><use xlink:href="#B" x="852.018" y="684"/><use xlink:href="#B" x="902.036" y="684"/><use xlink:href="#B" x="952.056" y="684"/><path d="M1143.358 750.253v-26.97L1120 709.796l-23.358 13.486v26.97L1120 763.74l23.358-13.486z"/><use xlink:href="#B" x="1052.092" y="684"/><use xlink:href="#Q" x="549.377" y="169.389"/><use xlink:href="#B" x="726.972" y="727.509"/><use xlink:href="#Q" x="649.414" y="169.389"/><use xlink:href="#B" x="827.009" y="727.509"/><use xlink:href="#P" x="775.487" y="298.889"/><use xlink:href="#B" x="927.046" y="727.509"/><path d="M1118.348 793.762v-26.97L1095 753.305l-23.357 13.486v26.97L1095 807.248l23.358-13.486z"/><use xlink:href="#B" x="1027.083" y="727.509"/><use xlink:href="#H" x="775.963" y="554.5"/><use xlink:href="#H" x="825.981" y="554.5"/><use xlink:href="#H" x="876" y="554.5"/><use xlink:href="#H" x="926.018" y="554.5"/><use xlink:href="#H" x="976.036" y="554.5"/><use xlink:href="#H" x="1026.056" y="554.5"/><path d="M1143.358 836.244v-26.972L1120 795.787l-23.358 13.485v26.972L1120 849.73l23.358-13.485z"/><use xlink:href="#H" x="1126.092" y="554.5"/><use xlink:href="#B" x="677.981" y="813.5"/><use xlink:href="#B" x="728" y="813.5"/><use xlink:href="#B" x="778.018" y="813.5"/><use xlink:href="#B" x="828.036" y="813.5"/><use xlink:href="#B" x="878.056" y="813.5"/><path d="M1069.358 879.753v-26.97L1046 839.296l-23.358 13.486v26.97L1046 893.24l23.358-13.486z"/><use xlink:href="#B" x="978.092" y="813.5"/><use xlink:href="#B" x="1028.111" y="813.5"/><use xlink:href="#Q" x="575.414" y="297.861"/><use xlink:href="#B" x="753.009" y="855.981"/><use xlink:href="#Q" x="675.45" y="297.861"/><use xlink:href="#B" x="853.046" y="855.981"/><path d="M1044.348 922.234v-26.97L1021 881.777l-23.357 13.486v26.97L1021 935.72l23.358-13.486z"/><use xlink:href="#B" x="953.083" y="855.981"/><use xlink:href="#P" x="901.562" y="427.361"/><use xlink:href="#B" x="1053.12" y="855.981"/><use xlink:href="#W" x="-423.495" y="643.27"/><use xlink:href="#W" x="-373.476" y="643.27"/><use xlink:href="#W" x="-323.458" y="643.27"/><use xlink:href="#W" x="-273.44" y="643.27"/><use xlink:href="#W" x="-223.42" y="643.27"/><path d="M1069.358 938.772L1046 925.287l-23.358 13.485v26.972L1046 979.23l23.358-13.485v-26.972z"/><use xlink:href="#W" x="-123.384" y="643.27"/><use xlink:href="#W" x="-73.365" y="643.27"/><use xlink:href="#F" x="701.964" y="769.991"/><use xlink:href="#D" x="776.991" y="812.472"/><use xlink:href="#F" x="802" y="769.991"/><use xlink:href="#D" x="877.028" y="812.472"/><path d="M997.633 981.254v26.97L1021 1021.71l23.358-13.486v-26.97L1021 967.768l-23.357 13.486z"/><use xlink:href="#D" x="977.064" y="812.472"/><use xlink:href="#G" x="802" y="769.991"/><use xlink:href="#D" x="1077.102" y="812.472"/><use xlink:href="#P" x="975.9" y="212.147"/><use xlink:href="#D" x="1151.44" y="511.268"/><path d="M1272.044 707.02l7.956 4.593v-36.157l-7.956 4.593v26.97zm-28.31 15.5l-23.358-13.485-23.358 13.485v26.972l23.358 13.485 23.358-13.485V722.53zm3.302 0v26.972l23.358 13.485 9.607-5.546v-42.85l-9.607-5.546-23.358 13.485z"/><use xlink:href="#P" x="975.9" y="298.137"/><use xlink:href="#D" x="1151.44" y="597.258"/><path d="M1272.044 793.01l7.956 4.593v-36.158l-7.956 4.594v26.97z"/><use xlink:href="#B" x="1102.449" y="769.239"/><path d="M1247.035 808.52v26.97l23.358 13.486 9.607-5.546v-42.85l-9.607-5.547-23.358 13.486zm-27.285 70.482V852.03l-23.358-13.486-23.358 13.486v26.972l23.358 13.485 23.358-13.485zm3.304-26.972v26.972l23.358 13.485 23.358-13.485V852.03l-23.358-13.486-23.358 13.486zm50.018 26.972l6.928 4v-34.97l-6.928 4v26.972z"/><use xlink:href="#B" x="1103.476" y="855.23"/><path d="M1248.063 894.512v26.97l23.358 13.486 8.58-4.953V885.98l-8.58-4.953-23.358 13.486z"/><use xlink:href="#O" x="1026.945" y="470.118"/><use xlink:href="#O" x="1076.965" y="470.118"/><path d="M1273.072 964.992l6.928 4v-34.97l-6.928 4v26.97z"/><use xlink:href="#C" x="1153.494" y="855.23"/><path d="M1248.063 980.502v26.972l23.358 13.485 8.58-4.953V971.97l-8.58-4.953-23.358 13.485z"/><use xlink:href="#e"/><use xlink:href="#e" x="50.018"/><use xlink:href="#e" x="100.038"/><use xlink:href="#e" x="150.056"/><use xlink:href="#e" x="200.074"/><use xlink:href="#e" x="250.093"/><use xlink:href="#e" x="300.111"/><use xlink:href="#e" x="350.13"/><path d="M1196.868 1009.193l-23.358 13.485V1024h46.716v-1.322l-23.358-13.485zm50.02 0l-23.358 13.485V1024h46.716v-1.322l-23.358-13.485zm33.113 9.76l-6.453 3.725V1024H1280v-5.047z"/></g><defs ><path id="B" d="M141.284 66.253v-26.97l-23.358-13.486-23.358 13.486v26.97l23.358 13.486 23.358-13.486z"/><path id="C" d="M44.55 125.272v26.972l23.358 13.485 23.358-13.485v-26.972l-23.358-13.485-23.358 13.485z"/><path id="D" d="M70.586 168.782v26.97l23.358 13.486 23.358-13.486v-26.97l-23.358-13.486-23.358 13.486z"/><path id="E" d="M45.577 238.234l23.358 13.486 23.358-13.486v-26.97l-23.358-13.486-23.358 13.486v26.97z"/><path id="F" d="M95.596 211.263v26.97l23.358 13.486 23.357-13.486v-26.97l-23.357-13.486-23.358 13.486z"/><path id="G" d="M295.67 211.263v26.97l23.357 13.486 23.358-13.486v-26.97l-23.358-13.486-23.357 13.486z"/><path id="H" d="M67.284 281.744v-26.972l-23.358-13.485-23.358 13.485v26.972l23.358 13.485 23.358-13.485z"/><path id="I" d="M443.384 36.506l23.358-13.486V0h-46.716v23.02l23.358 13.486z"/><path id="J" d="M441.733 65.502V38.53l-23.358-13.485-23.358 13.485v26.972l23.358 13.485 23.358-13.485z"/><path id="K" d="M420.026 109.01l23.358 13.486 23.358-13.486V82.04l-23.358-13.486-23.358 13.486v26.97z"/><path id="L" d="M371.035 168.03v26.972l23.358 13.485 23.358-13.485V168.03l-23.358-13.486-23.358 13.486z"/><path id="M" d="M146.09 381.91v26.972l23.358 13.485 23.358-13.485V381.91l-23.358-13.485-23.358 13.485z"/><path id="N" d="M121.08 425.42v26.972l23.358 13.486 23.358-13.486V425.42l-23.358-13.485-23.358 13.485z"/><path id="O" d="M192.805 467.902l-23.358-13.486-23.358 13.486v26.97l23.358 13.486 23.358-13.486v-26.97z"/><path id="P" d="M242.823 494.873v-26.97l-23.358-13.486-23.357 13.486v26.97l23.357 13.486 23.358-13.486z"/><path id="Q" d="M268.86 624.373v-26.97l-23.357-13.486-23.358 13.486v26.97l23.358 13.486 23.357-13.486z"/><path id="R" d="M47.08 666.855l23.358 13.485 23.358-13.485v-26.972l-23.358-13.485-23.358 13.485v26.972z"/><path id="S" d="M444.263 580.113V553.14l-23.358-13.485-23.358 13.485v26.972l23.358 13.485 23.358-13.485z"/><path id="T" d="M419.254 623.622V596.65l-23.358-13.485-23.358 13.485v26.972l23.358 13.485 23.358-13.485z"/><path id="U" d="M942.935 36.257l23.358-13.485V0h-46.716v22.772l23.358 13.485z"/><path id="V" d="M919.577 108.762l23.358 13.486 23.358-13.486V81.79l-23.358-13.486-23.358 13.486v26.97z"/><path id="W" d="M1242.76 295.502l-23.358-13.485-23.358 13.485v26.972l23.358 13.485 23.358-13.485v-26.972z"/><path id="X" d="M771.024 424.42v26.972l23.358 13.486 23.358-13.486V424.42l-23.358-13.485-23.358 13.485z"/><path id="Y" d="M918.805 537.383V510.41l-23.358-13.486-23.358 13.486v26.972l23.358 13.485 23.358-13.485z"/><path id="Z" d="M1193.906 552.893l-23.357-13.486-23.358 13.486v26.97l23.358 13.486 23.357-13.486v-26.97z"/><path id="a" d="M443.733 750.502V723.53l-23.358-13.485-23.358 13.485v26.972l23.358 13.485 23.358-13.485z"/><path id="b" d="M419.75 880.002V853.03l-23.358-13.486-23.358 13.486v26.972l23.358 13.485 23.358-13.485z"/><path id="c" d="M396.868 1010.193l-23.358 13.485v.322h46.716v-.322l-23.358-13.485z"/><path id="d" d="M968.293 707.772V680.8l-23.358-13.485-23.358 13.485v26.972l23.358 13.485 23.358-13.485z"/><path id="e" d="M796.382 1009.944l-23.358 13.486v.57h46.716v-.57l-23.358-13.486z"/></defs></svg>