<svg xmlns="http://www.w3.org/2000/svg" viewBox="0 0 300.131 457.931" xmlns:v="https://vecta.io/nano"><style><![CDATA[.A{isolation:isolate}.J{mix-blend-mode:multiply}.K{fill:#4c4a5c}.L{fill-rule:evenodd}]]></style><g class="A"><g><g class="L"><path d="M281.83 430.03L0 457.93V124.36L249.14 99.7a11.16 11.16 0 0 1 12.17 9.98l30.5 308.18c.585 6.114-3.88 11.552-10 12.17z" fill="#f5f5f5"/><path d="M200.012 104.56l27.548-2.726 1.558 15.735a2.61 2.61 0 0 1-2.333 2.844l-22.37 2.214a2.61 2.61 0 0 1-2.845-2.331z" fill="#b3b3b3"/><path d="M298.36 14.1l-40 78.98L0 118.66v-90.3L284.7.19c13.6-1.35 18.38 4.6 13.66 13.9z" fill="#151f2d"/><path d="M270.13 24.5L241.3 84.67 0 108.56V51.23L270.13 24.5z" fill="#3b385b"/><g fill="#fff"><path d="M291.87 4.03c-.001 1.146-.87 2.106-2 2.22L0 34.94v-4.48L289.43 1.8c1.222-.113 2.306.78 2.43 2a1.62 1.62 0 0 1 .01.22zM202.512 89.9l19.72-1.952a2.3 2.3 0 0 1 2.51 2.056l2.307 23.307a2.3 2.3 0 0 1-2.057 2.51l-19.72 1.952a2.3 2.3 0 0 1-2.51-2.058L200.454 92.4a2.3 2.3 0 0 1 2.058-2.5z"/></g><g class="K"><path d="M216.184 147.416l15.343-1.518c1.75-.168 3.305 1.108 3.483 2.856l1.13 11.4a3.2 3.2 0 0 1-2.857 3.484l-15.343 1.52a3.2 3.2 0 0 1-3.488-2.856l-1.13-11.4a3.2 3.2 0 0 1 2.861-3.485zm2.856 21.684l13.94-1.38a3.9 3.9 0 0 1 4.256 3.49l1.53 15.448a3.9 3.9 0 0 1-3.49 4.256l-13.937 1.38c-2.138.206-4.04-1.353-4.26-3.5l-1.53-15.448a3.9 3.9 0 0 1 3.491-4.257zm2.693 27.208l13.937-1.38c2.137-.205 4.04 1.354 4.257 3.5l1.53 15.448a3.9 3.9 0 0 1-3.489 4.258l-13.94 1.38c-2.138.205-4.04-1.355-4.258-3.5l-1.53-15.448a3.91 3.91 0 0 1 3.493-4.257zm2.692 27.206l13.94-1.38a3.9 3.9 0 0 1 4.256 3.491l1.53 15.448c.204 2.137-1.355 4.038-3.5 4.256l-13.937 1.38a3.91 3.91 0 0 1-4.26-3.49l-1.528-15.447a3.91 3.91 0 0 1 3.491-4.258zm2.695 27.204l13.937-1.38a3.9 3.9 0 0 1 4.257 3.491l1.528 15.448a3.9 3.9 0 0 1-3.489 4.256l-13.937 1.38c-2.138.206-4.04-1.353-4.26-3.5l-1.53-15.447c-.205-2.138 1.356-4.04 3.493-4.258zm2.692 27.207l13.937-1.38a3.9 3.9 0 0 1 4.257 3.491l1.53 15.447c.205 2.137-1.355 4.04-3.5 4.257l-13.937 1.38c-2.137.205-4.04-1.354-4.258-3.5l-1.53-15.447a3.91 3.91 0 0 1 3.493-4.258zM189.074 150.1l15.348-1.52a3.2 3.2 0 0 1 3.483 2.856l1.13 11.4c.17 1.75-1.107 3.306-2.855 3.484l-15.348 1.52a3.2 3.2 0 0 1-3.483-2.856l-1.13-11.4a3.2 3.2 0 0 1 2.855-3.484zm-21.906 24.138l38.43-3.8c2.287-.222 4.323 1.447 4.556 3.733l1.476 14.907c.22 2.287-1.45 4.322-3.736 4.554l-38.433 3.8a4.18 4.18 0 0 1-4.556-3.73l-1.475-14.907a4.18 4.18 0 0 1 3.737-4.556zM187.5 199.7l20.8-2.058a4.18 4.18 0 0 1 4.556 3.733l1.476 14.907a4.18 4.18 0 0 1-3.737 4.555L189.8 222.9a4.18 4.18 0 0 1-4.556-3.734l-1.476-14.907a4.18 4.18 0 0 1 3.732-4.549zm-18.007 29.25l41.5-4.107a4.18 4.18 0 0 1 4.558 3.734l1.475 14.907a4.18 4.18 0 0 1-3.736 4.554l-41.5 4.107a4.18 4.18 0 0 1-4.553-3.734l-1.477-14.9a4.18 4.18 0 0 1 3.733-4.55zM200 253.4l13.937-1.38c2.138-.206 4.042 1.354 4.26 3.5l1.53 15.447a3.9 3.9 0 0 1-3.492 4.257l-13.94 1.38a3.9 3.9 0 0 1-4.255-3.49l-1.53-15.448c-.204-2.137 1.355-4.038 3.5-4.257zm2.7 27.208l13.94-1.38a3.9 3.9 0 0 1 4.258 3.491l1.53 15.448c.204 2.138-1.357 4.04-3.494 4.257L205 303.8c-2.137.205-4.04-1.354-4.257-3.5l-1.53-15.448a3.9 3.9 0 0 1 3.486-4.255zm-38.662-128.03l13.276-1.315a3.2 3.2 0 0 1 3.483 2.856l1.128 11.4a3.2 3.2 0 0 1-2.855 3.484l-13.276 1.314a3.2 3.2 0 0 1-3.483-2.856l-1.128-11.4a3.19 3.19 0 0 1 2.855-3.483zM138.6 155.1l13.276-1.314a3.2 3.2 0 0 1 3.483 2.856l1.128 11.4a3.19 3.19 0 0 1-2.856 3.483l-13.276 1.314c-1.75.168-3.305-1.107-3.483-2.855l-1.13-11.4a3.2 3.2 0 0 1 2.857-3.484z"/></g></g><rect x="690.805" y="325.214" width="19.711" height="17.831" rx="3.185" transform="matrix(.995 -.098 .098 .995 -609.503 -97.663)" class="K"/><rect x="665.359" y="327.732" width="19.71" height="17.831" rx="3.185" transform="matrix(.995138 -.098486 .098486 .995138 -609.873 -100.161)" class="K"/><path d="M62.254 162.654l13.275-1.314c1.75-.173 3.3 1.105 3.483 2.856l1.13 11.408c.083.84-.17 1.68-.707 2.334s-1.31 1.067-2.15 1.15L64 180.402c-1.75.173-3.3-1.105-3.483-2.856l-1.13-11.408c-.083-.84.17-1.68.707-2.334s1.31-1.067 2.15-1.15z" class="K"/><rect x="614.465" y="332.77" width="19.711" height="17.831" rx="3.186" transform="matrix(.995133 -.098538 .098538 .995133 -610.633 -105.112)" class="K"/><path d="M11.355 167.688l13.275-1.314c.84-.083 1.68.17 2.334.707s1.067 1.31 1.15 2.15l1.13 11.404c.083.84-.17 1.68-.707 2.334s-1.31 1.067-2.15 1.15l-13.275 1.314c-.84.083-1.68-.17-2.334-.707s-1.067-1.31-1.15-2.15l-1.13-11.403a3.19 3.19 0 0 1 2.857-3.485z" class="K"/><g class="L K"><path d="M3.8 183.15a3.2 3.2 0 0 1-2.86 3.49l-.94.1v-17.82a3.21 3.21 0 0 1 2.67 2.84zm135.9-6.194l13.676-1.354c2.098-.202 3.966 1.33 4.18 3.426l1.543 15.6c.202 2.1-1.33 3.966-3.426 4.18l-13.678 1.354c-2.1.2-3.966-1.33-4.18-3.427l-1.543-15.6c-.2-2.1 1.33-3.965 3.428-4.18zm-27.6 2.732l13.676-1.354c2.098-.202 3.965 1.33 4.18 3.426l1.543 15.6c.2 2.098-1.33 3.965-3.426 4.18l-13.672 1.354c-2.1.202-3.966-1.33-4.18-3.427l-1.543-15.6c-.202-2.097 1.327-3.963 3.422-4.18z"/></g><path d="M84.494 182.42l13.678-1.353a3.82 3.82 0 0 1 4.18 3.427l1.542 15.588a3.82 3.82 0 0 1-3.427 4.18l-13.667 1.35a3.82 3.82 0 0 1-4.179-3.426l-1.542-15.6a3.82 3.82 0 0 1 3.425-4.179zm-27.607 2.73l13.68-1.354a3.82 3.82 0 0 1 4.179 3.426l1.543 15.6a3.82 3.82 0 0 1-3.427 4.18l-13.678 1.354a3.82 3.82 0 0 1-4.179-3.426l-1.544-15.592a3.82 3.82 0 0 1 3.426-4.178zm-27.614 2.75l13.68-1.354a3.82 3.82 0 0 1 4.179 3.426l1.543 15.6a3.82 3.82 0 0 1-3.426 4.179l-13.68 1.354a3.82 3.82 0 0 1-4.177-3.424l-1.544-15.595a3.82 3.82 0 0 1 3.424-4.177z" class="K"/><g class="L K"><path d="M21.07 208.28c.195 2.098-1.335 3.962-3.43 4.18L3.96 213.8A3.83 3.83 0 0 1 0 211.33V191.2a3.71 3.71 0 0 1 1.67-.58l13.68-1.36a3.83 3.83 0 0 1 4.17 3.43zM8.4 240.85l-8.4.83v-23.43l6.1-.6a4.1 4.1 0 0 1 4.47 3.67l1.5 15.05a4.11 4.11 0 0 1-3.66 4.48z"/></g><path d="M19.567 216.318l14.65-1.45a4.09 4.09 0 0 1 4.475 3.67l1.5 15.05a4.09 4.09 0 0 1-3.67 4.475l-14.65 1.45a4.09 4.09 0 0 1-4.474-3.668l-1.5-15.052a4.09 4.09 0 0 1 3.668-4.474zm28.126-2.783l14.65-1.45a4.09 4.09 0 0 1 4.475 3.67l1.5 15.05a4.09 4.09 0 0 1-3.668 4.474L50 236.728a4.09 4.09 0 0 1-4.475-3.67l-1.5-15.05a4.09 4.09 0 0 1 3.67-4.475zm28.127-2.785l14.65-1.45a4.09 4.09 0 0 1 4.474 3.668l1.5 15.052a4.09 4.09 0 0 1-3.67 4.475l-14.645 1.45a4.09 4.09 0 0 1-4.475-3.67l-1.5-15.053a4.09 4.09 0 0 1 3.667-4.473zm28.127-2.785l14.65-1.45a4.09 4.09 0 0 1 4.475 3.67l1.5 15.05a4.1 4.1 0 0 1-.908 3c-.688.84-1.682 1.37-2.763 1.478l-14.646 1.45a4.09 4.09 0 0 1-4.475-3.67l-1.5-15.053c-.222-2.248 1.42-4.25 3.668-4.474zm28.126-2.782l14.65-1.45a4.09 4.09 0 0 1 4.473 3.667l1.5 15.052a4.09 4.09 0 0 1-3.67 4.475l-14.646 1.45a4.09 4.09 0 0 1-4.475-3.67l-1.5-15.052a4.09 4.09 0 0 1 3.667-4.473z" class="K"/><g class="L K"><path d="M160.2 202.4l14.647-1.45a4.1 4.1 0 0 1 4.476 3.669l1.5 15.05a4.1 4.1 0 0 1-3.671 4.475l-14.647 1.45a4.1 4.1 0 0 1-4.476-3.669l-1.5-15.05c-.215-2.248 1.425-4.248 3.672-4.476zM22.57 262.8a4.11 4.11 0 0 1-3.67 4.48l-14.65 1.45C2.375 268.914.618 267.8 0 266v-19.74c.577-.415 1.253-.67 1.96-.74l14.65-1.45a4.1 4.1 0 0 1 4.47 3.67z"/></g><rect x="607.105" y="410.267" width="22.904" height="23.308" rx="4.092" transform="matrix(.99514 -.098469 .098469 .99514 -618.54 -105.339)" class="K"/><path d="M58.2 239.968l14.648-1.45a4.09 4.09 0 0 1 4.474 3.668l1.5 15.052a4.09 4.09 0 0 1-3.67 4.475l-14.648 1.45a4.1 4.1 0 0 1-3-.908c-.84-.688-1.37-1.682-1.478-2.763l-1.5-15.047a4.1 4.1 0 0 1 .908-3c.688-.84 1.682-1.37 2.763-1.478zm28.13-2.8l14.65-1.45a4.09 4.09 0 0 1 4.474 3.668l1.5 15.05a4.09 4.09 0 0 1-3.67 4.475l-14.648 1.45a4.09 4.09 0 0 1-4.474-3.668l-1.5-15.054a4.09 4.09 0 0 1 3.667-4.473zm28.125-2.783l14.652-1.45c2.25-.223 4.254 1.42 4.476 3.67l1.5 15.05a4.09 4.09 0 0 1-3.67 4.475l-14.65 1.45a4.1 4.1 0 0 1-3-.908c-.84-.688-1.37-1.682-1.478-2.763l-1.5-15.048a4.09 4.09 0 0 1 3.67-4.475z" class="K"/><g class="L K"><path d="M142.6 231.614l14.65-1.45a4.1 4.1 0 0 1 4.475 3.669l1.5 15.05a4.1 4.1 0 0 1-3.667 4.475l-14.65 1.45a4.1 4.1 0 0 1-4.473-3.669l-1.5-15.05a4.1 4.1 0 0 1 3.667-4.475zM8.2 295.8l-8.2.8v-23.4l5.9-.58c1.08-.107 2.158.22 2.996.908a4.08 4.08 0 0 1 1.474 2.762l1.5 15.05a4.1 4.1 0 0 1-3.67 4.47z"/></g><path d="M19.377 271.283l14.65-1.45a4.09 4.09 0 0 1 4.474 3.668l1.5 15.053a4.09 4.09 0 0 1-3.668 4.474l-14.65 1.45a4.09 4.09 0 0 1-4.475-3.67l-1.5-15.05a4.09 4.09 0 0 1 3.67-4.475zm27.83-2.543l14.647-1.443a4.09 4.09 0 0 1 4.473 3.671l1.482 15.048c.222 2.25-1.422 4.252-3.67 4.474l-14.646 1.443a4.09 4.09 0 0 1-4.473-3.671l-1.482-15.05a4.09 4.09 0 0 1 3.671-4.473zm28.423-3.025l14.65-1.45a4.09 4.09 0 0 1 4.474 3.668l1.5 15.052a4.09 4.09 0 0 1-3.668 4.474l-14.648 1.45a4.09 4.09 0 0 1-4.475-3.67l-1.5-15.05c-.222-2.25 1.42-4.252 3.668-4.475zm28.125-2.78l14.65-1.45a4.1 4.1 0 0 1 3 .908c.84.688 1.37 1.682 1.478 2.763l1.5 15.05c.223 2.25-1.42 4.254-3.67 4.476l-14.65 1.45a4.09 4.09 0 0 1-4.475-3.67l-1.5-15.052a4.09 4.09 0 0 1 3.668-4.474z" class="K"/><g class="L K"><path d="M131.885 260.146l14.65-1.445a4.1 4.1 0 0 1 4.473 3.669l1.5 15.05c.215 2.247-1.424 4.246-3.67 4.475l-14.648 1.45c-2.247.216-4.247-1.423-4.477-3.67l-1.5-15.05a4.1 4.1 0 0 1 3.671-4.48zm28.195-2.79l26.5-2.622a4.18 4.18 0 0 1 4.553 3.734l1.476 14.907a4.18 4.18 0 0 1-3.734 4.555l-26.5 2.622a4.18 4.18 0 0 1-4.553-3.734L156.35 261.9a4.18 4.18 0 0 1 3.732-4.555zM14.1 318.6a4.1 4.1 0 0 1-3.67 4.47L0 324.1v-23.42l8.13-.8c2.247-.224 4.252 1.413 4.48 3.66z"/></g><rect x="598.632" y="466.05" width="22.904" height="23.308" rx="4.092" transform="matrix(.995138 -.098486 .098486 .995138 -624.079 -105.896)" class="K"/><path d="M49.738 295.75l14.65-1.45a4.09 4.09 0 0 1 4.474 3.668l1.5 15.053a4.09 4.09 0 0 1-3.667 4.473l-14.65 1.45c-2.25.223-4.253-1.42-4.475-3.67l-1.49-15.05c-.223-2.25 1.42-4.253 3.67-4.475z" class="K"/><rect x="654.886" y="460.482" width="22.904" height="23.308" rx="4.092" transform="matrix(.99514 -.098469 .098469 .99514 -623.253 -100.39)" class="K"/><path d="M105.986 290.187l14.65-1.45a4.09 4.09 0 0 1 4.474 3.668l1.49 15.05a4.09 4.09 0 0 1-3.668 4.474l-14.65 1.45c-2.25.223-4.253-1.42-4.475-3.67l-1.49-15.05c-.22-2.248 1.42-4.25 3.67-4.473z" class="K"/><g class="L"><path d="M134.2 287.4l26.5-2.622a4.18 4.18 0 0 1 4.553 3.735l1.476 14.905a4.18 4.18 0 0 1-3.733 4.555l-26.5 2.622a4.18 4.18 0 0 1-4.554-3.734l-1.475-14.906a4.18 4.18 0 0 1 3.733-4.555zm41.4-4.1l13.937-1.38a3.9 3.9 0 0 1 4.257 3.49l1.53 15.448a3.9 3.9 0 0 1-3.489 4.256l-13.937 1.38a3.9 3.9 0 0 1-4.26-3.489L172.1 287.55a3.9 3.9 0 0 1 3.5-4.258z" class="K"/><g fill="#ccc"><path d="M117.57 407.22a4.09 4.09 0 0 1-3.66 4.45L0 422.95V343.8l106.16-10.5c2.234-.213 4.222 1.417 4.45 3.65zm-77.45 32.65a.83.83 0 0 1-.183.616.84.84 0 0 1-.567.304L0 444.7v-16.44l37.76-3.74c.462-.038.87.3.92.76zm4.832-16.07l72.694-7.195c.464-.045.877.293.924.756l1.445 14.6a.85.85 0 0 1-.758.925l-72.694 7.2a.85.85 0 0 1-.924-.761l-1.445-14.6c-.045-.465.294-.878.758-.925z"/></g><path class="J" d="M270.13 24.49v.01h-.01l-28.8 60.17L0 81.1V51.23l270.13-26.74z" fill="#555b79" opacity=".5"/></g></g></g></svg>