<svg xmlns="http://www.w3.org/2000/svg" viewBox="0 0 327.555 380.843" xmlns:v="https://vecta.io/nano"><style>.A{isolation:isolate}.F{mix-blend-mode:multiply}</style><g class="A"><g><path d="M323.514 279.883c7.54 11.895 4.22 27.52-7.416 34.9L219.522 376c-11.638 7.376-27.186 3.712-34.727-8.183l-167.27-263.86c-7.538-11.9-4.216-27.522 7.42-34.9l96.574-61.222c11.638-7.38 27.187-3.716 34.724 8.182z" fill="#a1bace"/><path d="M311.01 304.175l-116.87 72.454a24.86 24.86 0 0 0 25.38-.622l96.576-61.232c3.725-2.362 6.738-5.692 8.718-9.633z" fill="#91a9ba"/><path d="M315.853 278.182c7.604 12.005 4.042 27.9-7.958 35.512L208.28 376.84c-12.003 7.607-27.9 4.046-35.51-7.955L4.002 102.658A25.73 25.73 0 0 1 .625 83.256a25.73 25.73 0 0 1 11.332-16.107l99.6-63.147c12.003-7.608 27.9-4.047 35.5 7.955z" fill="#f6f5fc"/><g fill="#555b79"><path d="M304.64 272.515a23.9 23.9 0 0 1-7.219 33.024l-92.04 58.35c-11.187 7.006-25.935 3.622-32.947-7.56l-157.6-248.6a23.9 23.9 0 0 1 7.219-33.024l92.044-58.35a23.9 23.9 0 0 1 32.944 7.563z"/><path class="F" d="M205.38 363.89l92.044-58.35c9.608-6.147 13.518-18.237 9.327-28.846L13.05 85.22a24.06 24.06 0 0 0 1.78 22.5l157.6 248.6c7 11.187 21.76 14.574 32.95 7.568z" opacity=".5"/></g><path d="M275.933 315.335c1.015 1.6 1.352 3.54.938 5.4s-1.547 3.46-3.15 4.474l-37.427 23.728c-3.335 2.114-7.752 1.126-9.867-2.208h0a7.15 7.15 0 0 1 2.209-9.866l37.428-23.726a7.15 7.15 0 0 1 9.867 2.208z" fill="#f6f5fc"/><path class="F" d="M104.48 44.884c1.015 1.6 1.352 3.54.938 5.4s-1.547 3.46-3.15 4.474L64.84 78.475c-1.6 1.016-3.54 1.353-5.39.94s-3.46-1.547-4.474-3.148h0c-1.016-1.6-1.354-3.54-.94-5.39s1.547-3.46 3.15-4.475l37.43-23.725a7.15 7.15 0 0 1 9.865 2.213z" fill="#555b79" opacity=".5"/></g></g></svg>