<svg xmlns="http://www.w3.org/2000/svg" viewBox="0 0 331.614 510.873" xmlns:v="https://vecta.io/nano"><style>.A{isolation:isolate}.H{mix-blend-mode:multiply}</style><g class="A"><g><path d="M34.605 455.322L24.41 435.95v-34.02l12.642 19.613-2.446 33.78z" fill="#6c569e"/><path d="M315.897 455.322a23.63 23.63 0 0 0 15.716-22.006V97.16c0-11.5-8.53-21.06-19.824-23.155H149.85c-.458.082-.92.138-1.37.243H34.605v381.074z" fill="#7e66b2"/><path d="M313.182 448.525c9.335-3.316 15.6-12.103 15.715-22.01V90.363c0-11.5-8.53-21.06-19.82-23.157H147.13c-.456.084-.92.143-1.364.245H31.887v381.074z" fill="#f2f3f9"/><path d="M305.697 435.95a23.62 23.62 0 0 0 15.718-22.006V77.79c0-11.5-8.533-21.06-19.824-23.155H139.653c-.453.08-.922.14-1.37.243H24.408V435.95z" fill="#9575cd"/><path d="M68.072 54.877H94.58V435.95H68.072z" fill="#4527a0"/><path d="M313.182 448.525l-7.48-12.576H24.41l7.478 12.576h281.295z" fill="#a1bace"/><g fill="#4527a0"><path d="M286.254 118.865c0 3.245-1.29 6.356-3.583 8.65s-5.406 3.583-8.65 3.583h-77.486c-3.245.001-6.358-1.287-8.653-3.582s-3.584-5.406-3.584-8.65h0a12.24 12.24 0 0 1 12.235-12.235h77.486a12.24 12.24 0 0 1 12.234 12.235z"/><path class="H" d="M276.197 125.654h-77.484a12.24 12.24 0 0 1-12.236-12.238 12.59 12.59 0 0 1 .131-1.684 12.22 12.22 0 0 0 9.926 19.364h77.486a12.23 12.23 0 0 0 12.108-10.549c-2.292 3.206-6 5.108-9.93 5.107z"/></g><path d="M40.233 435.68v75.193L53.28 494.74l13.732 16.134V435.68H40.233z" fill="#3d2e39"/><g fill="#3d2c33"><path d="M4.512 59.272a2.09 2.09 0 0 1-1.17-.36C1.5 57.64.275 55.632.01 53.4c-.133-2.213.92-4.3 3.13-6.236l.4-.27c2.748-1.353 5.9-1.6 8.834-.7 3.052 1.07 5.423 3.535 7.06 7.326.46 1.066-.03 2.304-1.097 2.765s-2.304-.03-2.765-1.097c-1.147-2.65-2.68-4.34-4.556-5.012a7.6 7.6 0 0 0-5.314.34 3.78 3.78 0 0 0-1.484 2.606c.175.935.715 1.763 1.5 2.3a2.11 2.11 0 0 1-1.206 3.836zm0 45.563a2.08 2.08 0 0 1-1.17-.358 7.79 7.79 0 0 1-3.331-5.511c-.133-2.213.92-4.312 3.13-6.236l.4-.27a11.93 11.93 0 0 1 8.834-.692c3.052 1.074 5.423 3.538 7.06 7.328.46 1.066-.03 2.304-1.097 2.765s-2.304-.03-2.765-1.097c-1.147-2.652-2.68-4.34-4.556-5.012a7.59 7.59 0 0 0-5.314.34c-.833.626-1.37 1.57-1.484 2.606a3.6 3.6 0 0 0 1.5 2.307c.753.527 1.078 1.48.802 2.358s-1.1 1.473-2.008 1.474zm0 45.565a2.08 2.08 0 0 1-1.17-.359 7.79 7.79 0 0 1-3.331-5.511c-.133-2.213.92-4.312 3.13-6.236l.4-.27a11.94 11.94 0 0 1 8.834-.691c3.052 1.073 5.423 3.537 7.06 7.327a2.12 2.12 0 0 1-.243 2.1c-.45.614-1.184.92-1.93.835s-1.4-.565-1.688-1.255c-1.147-2.653-2.68-4.34-4.556-5.012-1.754-.532-3.642-.412-5.314.34a3.77 3.77 0 0 0-1.484 2.6c.173.938.713 1.768 1.5 2.307a2.11 2.11 0 0 1-1.206 3.835zm0 49.073a2.07 2.07 0 0 1-1.17-.361 7.78 7.78 0 0 1-3.33-5.51c-.133-2.215.92-4.312 3.13-6.237l.4-.27a11.94 11.94 0 0 1 8.834-.691c3.052 1.07 5.423 3.538 7.06 7.327.46 1.066-.03 2.305-1.097 2.765s-2.305-.03-2.765-1.096c-1.147-2.654-2.68-4.34-4.556-5.012a7.6 7.6 0 0 0-5.314.339 3.77 3.77 0 0 0-1.484 2.6 3.58 3.58 0 0 0 1.5 2.306 2.11 2.11 0 0 1-1.206 3.836zm0 47.67a2.07 2.07 0 0 1-1.17-.36 7.78 7.78 0 0 1-3.33-5.512c-.133-2.212.92-4.3 3.13-6.234l.4-.27a11.95 11.95 0 0 1 8.834-.691c3.052 1.07 5.423 3.54 7.06 7.328.297.7.204 1.486-.245 2.1a2.1 2.1 0 0 1-3.616-.423c-1.147-2.65-2.68-4.335-4.556-5a7.6 7.6 0 0 0-5.314.338 3.78 3.78 0 0 0-1.484 2.606 3.59 3.59 0 0 0 1.5 2.307 2.11 2.11 0 0 1-1.206 3.834zm0 46.955a2.07 2.07 0 0 1-1.17-.36 7.78 7.78 0 0 1-3.33-5.51c-.133-2.213.92-4.3 3.13-6.235l.4-.27c2.747-1.355 5.9-1.603 8.834-.692 3.052 1.072 5.423 3.54 7.06 7.328.46 1.066-.03 2.304-1.097 2.765s-2.304-.03-2.765-1.097c-1.147-2.654-2.68-4.34-4.556-5.014a7.59 7.59 0 0 0-5.314.341 3.77 3.77 0 0 0-1.484 2.6 3.6 3.6 0 0 0 1.5 2.308c.753.527 1.077 1.482.8 2.358a2.11 2.11 0 0 1-2.007 1.475z"/></g><path d="M303.077 410.716c9.636-3.42 16.112-12.49 16.22-22.715V41.08c0-11.864-8.806-21.732-20.46-23.895H131.708c-.47.084-.948.145-1.4.25H12.773v393.28z" fill="#7e66b2"/><path d="M302.377 406.506c9.634-3.422 16.1-12.49 16.22-22.714V36.872c0-11.864-8.808-21.734-20.46-23.895h-167.13c-.47.085-.95.143-1.412.25H12.07v393.278z" fill="#c2c2c4"/><g fill="#f6f5fc"><path d="M294.66 393.53a24.38 24.38 0 0 0 16.219-22.713V23.894c0-11.865-8.806-21.735-20.46-23.894H123.3c-.47.083-.95.143-1.412.25H4.355v393.28z"/><path d="M4.355.25H9.43v393.28H4.355z"/></g><path d="M302.378 406.506l-7.72-12.977H4.355l7.714 12.977h290.31z" fill="#a1bace"/><g fill="#9575cd"><path d="M39.594 47.65H290.02v3.106H39.594zm0 24.745H290.02v3.1H39.594zm0 24.745H290.02v3.1H39.594zm0 24.745H290.02v3.106H39.594zm0 24.745H290.02v3.107H39.594zm0 24.744H290.02v3.108H39.594zm0 24.74H290.02v3.1H39.594zm0 24.748H290.02v3.107H39.594zm0 24.742H290.02v3.1H39.594zm0 24.747H290.02v3.106H39.594zm0 24.742H290.02v3.108H39.594zm0 24.746H290.02v3.1H39.594zm0 24.744H290.02v3.1H39.594z"/></g><path d="M265.13 27.013h2.103V362.32h-2.103z" fill="#f2afb2"/><g fill="#6d77b1"><circle cx="20.654" cy="50.856" r="8.416"/><circle cx="20.654" cy="98.558" r="8.416"/><circle cx="20.654" cy="146.259" r="8.416"/><circle cx="20.654" cy="193.96" r="8.417"/><circle cx="20.654" cy="241.661" r="8.416"/><circle cx="20.654" cy="289.363" r="8.416"/><circle cx="20.654" cy="337.063" r="8.417"/></g><g fill="#3d2c33"><path d="M19.432 53.53c-1.637-3.8-4.008-6.255-7.06-7.326-2.885-.9-6.008-.682-8.73.637v7.347h.95c-.2-.316-.34-.68-.377-1.057.114-1.036.65-1.98 1.484-2.606a7.6 7.6 0 0 1 5.314-.34c1.877.673 3.4 2.362 4.556 5.012.46 1.066 1.7 1.558 2.765 1.097s1.558-1.7 1.097-2.765zm0 45.565c-1.637-3.8-4.008-6.255-7.06-7.328a11.83 11.83 0 0 0-8.73.64v5.974h.617A4.22 4.22 0 0 1 5.7 96.09a7.59 7.59 0 0 1 5.314-.34c1.877.674 3.4 2.36 4.556 5.012.46 1.066 1.7 1.558 2.765 1.097s1.558-1.7 1.097-2.765zm0 45.565c-1.637-3.8-4.008-6.254-7.06-7.327a11.85 11.85 0 0 0-8.73.636v5.13h.9a5.8 5.8 0 0 1 1.162-1.445 7.61 7.61 0 0 1 5.314-.34c1.877.673 3.4 2.36 4.556 5.012.298.7.942 1.168 1.688 1.255s1.483-.23 1.93-.835.54-1.4.243-2.1zm0 49.072c-1.637-3.8-4.008-6.256-7.06-7.327a11.83 11.83 0 0 0-8.73.639v6.037h.606c.2-.927.713-1.757 1.45-2.353a7.6 7.6 0 0 1 5.314-.339c1.877.674 3.4 2.358 4.556 5.012.46 1.066 1.7 1.557 2.765 1.096s1.557-1.7 1.097-2.765zm0 47.67c-1.637-3.8-4.008-6.257-7.06-7.328a11.85 11.85 0 0 0-8.73.639v5.72h.654c.278-.8.762-1.494 1.4-2.038a7.6 7.6 0 0 1 5.314-.338c1.877.675 3.4 2.36 4.556 5a2.08 2.08 0 0 0 1.686 1.256c.746.086 1.482-.23 1.93-.832a2.11 2.11 0 0 0 .245-2.09zm0 46.955c-1.637-3.8-4.008-6.256-7.06-7.328a11.86 11.86 0 0 0-8.73.637v6.64h.665a1.41 1.41 0 0 1-.092-.35 3.77 3.77 0 0 1 1.484-2.6 7.59 7.59 0 0 1 5.314-.341c1.877.676 3.4 2.36 4.556 5.014.46 1.066 1.7 1.558 2.765 1.097s1.558-1.7 1.097-2.765z"/></g></g></g></svg>