<svg xmlns="http://www.w3.org/2000/svg" viewBox="0 0 244.785 405.06" xmlns:v="https://vecta.io/nano"><style><![CDATA[.F{stroke-miterlimit:10}.G{fill:#4b586e}.H{fill:#37455e}]]></style><g stroke="#fff" class="F"><path d="M67.612 188.49c-.407 2.33-2.625 3.888-4.955 3.48h0a4.28 4.28 0 0 1-3.479-4.953l22.145-126.7a4.28 4.28 0 0 1 4.953-3.478h0c2.33.408 3.887 2.626 3.48 4.955z" fill="#414e66"/><path d="M23.686 400.41c-.458 2.708-3.023 4.533-5.732 4.077L4.588 402.15c-1.3-.234-2.45-.975-3.204-2.06S.34 397.668.576 396.37l1.073-6.136c.46-2.708 3.026-4.53 5.734-4.073l13.363 2.34c2.703.488 4.498 3.073 4.012 5.776z" class="G"/><path d="M20.746 388.5l-5.1-.9-2.8 16 5.108.893c2.71.456 5.274-1.37 5.732-4.077l1.075-6.136c.483-2.702-1.314-5.284-4.015-5.77z" class="H"/></g><g stroke="#37455e" class="F"><path d="M1.33 392.065l50.857-290.98 23.1 4.04-50.857 290.98z" fill="#fff"/><path d="M13.31 394.162l50.837-290.985 11.143 1.947L24.452 396.11z" fill="#f2f2f2"/></g><g stroke="#fff" class="F"><g class="G"><path d="M11.25 393.797l50.97-290.96 3.152.552-50.97 290.96z"/><path d="M72.324 138.73l18.9-108.137a5 5 0 0 0-4.065-5.789l-18.476-3.23a5.01 5.01 0 0 0-5.789 4.067L43.996 133.78c-1.4.597-2.24 2.043-2.066 3.555s1.323 2.728 2.823 2.99l24.636 4.306c1.5.264 2.993-.49 3.67-1.854s.378-3.01-.736-4.046z"/></g><path d="M72.324 138.73l18.9-108.137a5 5 0 0 0-4.065-5.789l-7.867-1.375-20.846 119.288 10.946 1.913c1.5.264 2.993-.49 3.67-1.854s.378-3.01-.736-4.046z" class="H"/><path d="M201.288 158.837c.54 2.303-.89 4.607-3.19 5.148h0a4.28 4.28 0 0 1-5.144-3.189L163.54 35.582a4.28 4.28 0 0 1 3.189-5.146h0a4.28 4.28 0 0 1 5.146 3.189z" fill="#414e66"/><path d="M244.146 370.974c.643 2.67-1 5.356-3.67 6l-13.2 3.1c-1.286.295-2.637.067-3.755-.635s-1.91-1.818-2.206-3.104l-1.424-6.064c-.31-1.283-.096-2.636.593-3.76s1.797-1.93 3.08-2.24l13.2-3.1a4.97 4.97 0 0 1 5.958 3.735z" class="G"/><path d="M236.77 361.173l-5.05 1.185 3.71 15.8 5.05-1.185c2.67-.644 4.312-3.33 3.67-6l-1.422-6.066c-.614-2.676-3.282-4.348-5.958-3.734z" class="H"/></g><g stroke="#37455e" class="F"><path d="M152.758 84.518l22.84-5.366 67.563 287.56-22.84 5.366z" fill="#fff"/><path d="M164.573 81.744l11.013-2.588 67.584 287.557-11.013 2.588z" fill="#f2f2f2"/></g><g stroke="#fff" class="F"><g class="G"><path d="M162.623 82.2l3.117-.732 67.553 287.564-3.117.732z"/><path d="M186.073 111.23L160.967 4.36a5 5 0 0 0-6.011-3.728l-18.26 4.29a5 5 0 0 0-3.724 6.013L158.077 117.8c-1.054 1.098-1.26 2.76-.505 4.082s2.3 2 3.772 1.64l24.348-5.72c1.48-.348 2.555-1.628 2.643-3.146s-.832-2.913-2.262-3.43z"/></g><path d="M186.073 111.23L160.967 4.36a5 5 0 0 0-6.011-3.728L147.18 2.46l27.693 117.887 10.82-2.54c1.48-.348 2.555-1.628 2.643-3.146s-.832-2.913-2.262-3.43z" class="H"/></g></svg>