<svg xmlns="http://www.w3.org/2000/svg" width="1000" height="1000" viewBox="0 0 810.223 782.36" xmlns:v="https://vecta.io/nano"><path d="M418.896 547.667l27.235 30.8-20.588 36.25c-1.33 2.492-1.93 7.07-.538 9.062 20.275 29.005 24.63 62.336 26.893 96.29.226 3.39.352 6.788.646 12.583 2.12-3.556 3.425-5.153 4.114-6.982l67-179.173c7.506-20.987 11.112-43.37 16.65-65.723l70.4 29.672 83.844 35.48c48.13 21.515 77.963 58.49 89.37 109.89l23.722 113.156c.89 4.265 1.65 8.556 2.576 13.4H0l21.075-101.536c2.365-11.352 4.206-22.864 7.4-33.984 12.93-45.072 39.9-79.36 82.726-98.7 51.265-23.142 103.517-44.1 155.353-65.972a32.65 32.65 0 0 1 4.028-1.221c15.718 86.57 56.134 164.463 83.725 246.665.388 1.155 1.353 2.115 2.966 4.555 1.53-15.625 2.415-29.726 4.385-43.674 3.225-22.84 9.893-44.522 23.1-63.906 1.575-2.312 1.412-7.24.024-9.893-6.143-11.75-13.026-23.1-20.5-36.1l27.013-30.833c-13.786-9.97-28.175-19.68-41.774-30.4-16.605-13.08-32.464-27.1-48.827-40.5-5.047-4.132-7.222-8.445-5.024-15.023 7.622-22.81 6.3-44.225-5.5-66.243-7.884-14.72-10.4-32.28-15.745-48.43-1-3.024-3.775-5.625-6.163-7.983-3.1-3.06-7.583-5.077-9.825-8.593-15.2-23.852-21.15-49.97-17.64-78.116.292-2.338.5-5.3 1.96-6.778 8.618-8.7 4.243-18.582 3.708-28.462-1.526-28.2-4.12-56.544-2.612-84.634 1.325-24.615 10.313-47.365 34.478-60.215 1.584-.842 2.808-2.935 3.543-4.717C299.84 24.154 342.196-5.44 405.794.84c50.428 4.98 93.316 26.532 128.413 63.347 30.753 32.258 37.433 71.622 33.748 113.96-1.538 17.663-3.98 35.245-5.85 52.88-.24 2.573-.01 5.168.68 7.658 2.524 9.247 7.245 18.347 7.6 27.638.787 19.92-4.066 39.656-14 56.94-3.65 6.394-10.61 10.858-15.83 16.417a21.5 21.5 0 0 0-4.608 7.075q-13.547 37.42-26.675 74.993c-.94 2.82-1.19 5.825-.733 8.762 1.414 8.748 2.488 17.692 5.25 26.046 3.57 10.8.143 17.867-8.387 24.393l-77.505 60.29c-2.92 2.266-6.012 4.3-9 6.427z" fill="#fff"/></svg>