<svg xmlns="http://www.w3.org/2000/svg" width="1000" height="800" viewBox="0 0 712.437 674.3" fill="#fff" xmlns:v="https://vecta.io/nano"><path d="M542.66 580.03l-120.1-80.066a12.37 12.37 0 0 0-16.543 2.685l-34.97 44.958c-11.333 14.77-31.788 18.986-48.037 9.9l-6.465-3.55c-23.325-12.725-52.364-28.556-110.008-86.2s-73.487-86.683-86.2-110.02l-3.563-6.465c-9.084-16.245-4.868-36.696 9.9-48.024l44.945-34.98a12.36 12.36 0 0 0 2.685-16.543l-80.05-120.1a12.31 12.31 0 0 0-16.543-3.729l-50.25 30.132a48.35 48.35 0 0 0-22.128 28.517c-16.5 60.1-2.62 165.336 157.217 325.188s265.05 173.76 325.2 157.243a48.35 48.35 0 0 0 28.517-22.142l30.12-50.25a12.29 12.29 0 0 0-3.727-16.541zM710.408 2.027a6.92 6.92 0 0 0-4.971-2.026H172.26a6.92 6.92 0 0 0-7 7v185.25l30.236 45.35c10.902 16.476 7.32 38.563-8.232 50.748l-44.907 34.982a12.14 12.14 0 0 0-3.283 15.551l3.665 6.68a320.86 320.86 0 0 0 42.462 61.894h520.236a6.95 6.95 0 0 0 7-6.846V7c.02-1.863-.7-3.656-2.028-4.973zM348.87 233.452v-.064L218.515 373.045c-3.1 3.375-7.75 4.832-12.2 3.817a12.73 12.73 0 0 1-9.358-8.725c-1.325-4.38-.197-9.13 2.954-12.448L330.253 216.1a12.73 12.73 0 0 1 17.986-.63 12.73 12.73 0 0 1 .63 17.986zm89.978-10.027a42.18 42.18 0 0 1-25.45-8.4L200.713 53.75a12.75 12.75 0 1 1 15.449-20.284l212.6 161.277a17.17 17.17 0 0 0 20.182 0L661.6 33.466a12.73 12.73 0 0 1 15.384 20.284L464.3 215.027a42.18 42.18 0 0 1-25.452 8.398zm239.13 150.245c-2.468 2.304-5.75 3.533-9.126 3.416a12.72 12.72 0 0 1-8.867-4.04L529.642 233.4a12.73 12.73 0 0 1 1.05-17.562c5-4.63 12.745-4.5 17.6.273L678.6 355.7a12.73 12.73 0 0 1-.623 17.981z"/></svg>