<svg xmlns="http://www.w3.org/2000/svg" width="1000" height="1000" viewBox="0 0 661 379.258" fill="#fff" xmlns:v="https://vecta.io/nano"><path d="M389.36 0v36.74l-27.62 22.52 27.62 22.52v36.74H661V0zm202 85.185h-160.2V62.963h160.2zm34.826-29.63H431.15V33.333h195.024zM271.64 248.888v-36.74l27.62-22.52-27.62-22.52v-36.74H0v118.518zm-202-85.185h160.2v22.222H69.65zm-34.826 29.63H229.85v22.222H34.826zM389.36 260.74v36.74L361.74 320l27.62 22.52v36.74H661V260.74zm202 85.185h-160.2v-22.223h160.2zm34.826-29.63H431.15v-22.222h195.024zM360 189.63a29.67 29.67 0 0 0-18.518-27.46V86.72a29.62 29.62 0 0 0 0-54.92V0H319.26v31.8a29.62 29.62 0 0 0 0 54.92v75.45a29.62 29.62 0 0 0 0 54.92v75.45a29.62 29.62 0 0 0 0 54.92v31.8h22.222v-31.8a29.62 29.62 0 0 0 0-54.92V217.1A29.67 29.67 0 0 0 360 189.629zm-29.63 137.777a7.41 7.41 0 0 1-7.407-7.407 7.41 7.41 0 0 1 7.407-7.407 7.41 7.41 0 0 1 7.407 7.407 7.42 7.42 0 0 1-7.406 7.407zm0-130.37a7.41 7.41 0 0 1-7.407-7.407 7.41 7.41 0 0 1 7.407-7.407 7.41 7.41 0 0 1 7.407 7.407 7.42 7.42 0 0 1-7.406 7.407zm0-130.37a7.41 7.41 0 0 1-7.407-7.407 7.41 7.41 0 0 1 7.407-7.407 7.41 7.41 0 0 1 7.407 7.407 7.42 7.42 0 0 1-7.406 7.407z"/></svg>